<svg xmlns="http://www.w3.org/2000/svg" viewBox="0 0 1000 1000">
  <path clip-rule="evenodd" stroke="gold" stroke-miterlimit="10" d="M332.4 110.3h33v2c27.5-.4 40 14 55 31.6 9.2 10.2 19.5 21.6 25.2 31C475 222.4 474 305 485 364.6c83.7 20.7 191.8-2 289.5-7.7 41-2 83.8-6.7 116-3.6 9.7 1 61 24.3 56.3-10-3-29.4-60.5-2.5-68.3-27.3 18.6-21.6 62-23.7 88-7.6 8.7 19 30 50.2 13.8 82.2-6.7 13-35.7 19-39.3 33-5.2 18.7 6.2 74 7.7 98 4.2 51.6 2.6 103.3 39.3 117.3v8c-12.4 51.3 10.4 108.2-2 156.3-6.8 27.4-41.5 34-53 54.8-17-2.5-40.3 0-56.8-3.5-2-14 6.2-17.6 4-31.5-19.5 1-20.6 20-31.4 29.5-4.7-5.2-25.3.5-27.4-2 4.7-10.4 13.4-16.7 14-31C811 822 802 840 788 852.4c-7.2-5.2-22.8-2-29.5-7.7 3.6-11 11-18 12-31.5-19.2 0-32 18-51.3 6.2 4.7-32.6 9.8-64.7 9.8-102-38.8-8.7-108.6 0-154.6-7.7-15 27.4-15.5 70.4-21.2 107.6-22.3 11-44 42.4-73 48.7-23.7 5.8-52.2-.5-78 2.2 3-10 7.2-18.6 7.7-31-31.4-.6-25.2 47-56.8 41-4.7-23 11.4-34.3 6.2-50.8-24.8 16-22.3 58.5-59 62.6h-2c-1-6.2 2.5-17-1.6-19.7-4.2-2-29.5 1.6-41.4 0-1-7.2 6.2-11.3 2-15.5-17 9.3-33.5 18.6-60.4 17.6 1.6-6.7 14.5-21.2 5.7-25.3-18.6-3.5-15 15-21.7 23.3-7.8 2.6-14.5 6.2-21.2 9.8-3.6-12.3-16-15-17.6-29.4 9.8-17.6 13.4-41 19-62.6-66.2-.7-142.8 10.2-150-50.8C3 671.5 40.2 590.8 66 537.5c10.3-21.2 26.4-45 23.3-61-2.6-13-20.2-17-25.3-35.2-7.2-25.3 5.2-49.6-7.8-68.2-15-4.6-35.2-4.6-33-25.8 7.6-9.8 17.5-18 38.7-15.5 9.2-5.7 17-13 25.8-19.7C110 254 124 192.5 168 157.4c41.3-32.7 97.6-36.3 164.4-47m511 607c-6.2 15.6-9.3 43.5-2 60.6 33 16 87.8 57.4 115.2 12 3-34.8 12.4-72 12-104-.6-30-15.6-28.5-27.5-47-10.3-15-3.5-26.5-13.4-41-12.4 6.2-16.6 19.6-25.8 29.5-21.7 22.8-50.2 39.8-78 56.4-23.4-1.7-41-10-62.7-13.6-1 28 35.3 36.7 60.6 35.2 37.7-2 65.2-25.4 82.2-35.2-10.8 24.8-31.4 40.4-60.4 47m-697.2-411c19.6-3.7 15.5-22.3 19.6-35.3 5.7-17 16.6-37.7 27.4-51 14.5-18.2 35.7-28 49-46.7-58.3 8.8-102.2 59.5-96 133m-12-54.8C153 248 156.6 226 166 214.2c10.4-13.4 27.4-21.7 31.5-39.3-37.2 0-71.3 37.2-63 76.5m74.5-39.3c-17.6 17-35.2 41.4-33 68.8 24.2-8.8 46-8.3 68.2 1.6 14.5-31 28.5-63 31.6-105.5-28.6 1-50.8 20-66.8 35.2M350 227.7c14-5.2 12.4-38.8 0-45-8.8 8.3-12.5 38.2 0 45m-68.8-33.2c-15.5 53.3-23.8 104.5-45 151-9.8 21.7-18.6 45-29 66.2-10 19-34.7 43-19.7 66.7 17.6-18 29.5-43.4 43-68.8 12.3-22.7 28.4-51.7 35-78C277 286 277 238.8 289 190.2l-3.7-1.6-4 5.8m88.3 39.4c19-3.7 30-15.6 35.2-33.7-14.5-5.8-41 7.2-35.2 33.6M305 222c2 8.8 15 10.8 21.2 19.6l9.8-4.2c6.7-31-40.4-52.2-31-15.4m-12 49c16.2 1.7 39-6.6 43-23.7l-3.6-3.6c-19.2 3-37.3 6.7-39.3 27.4m50.8 39c16-4.8 25.8-52.3 4-58.5-8.7 15-22 44-4 58.4m29.4-56.5c-1 21.7 24.8 38.8 37.2 23.3 1.6-12.4-16.5-32.6-37.2-23.3m-246.7 35.2c-3.6 8.3-17 6.2-15.5 19.6 22.8 7.7 42-47 13.4-54.8h-3.6c-1.5 15 3.6 23.3 5.7 35.2M240.3 302c-4.7-20-38.8-30-59-13.3v7.7c17.6-.5 52.3 3 41.4 31.5-8.3 10.2-32 5-43.5 13.4 21.8 31 68.3-6 61-39.3m205.5 6.4v5.7c-4.7 41 3.6 93.7 0 139.2-5.2 73-14 146.4-33 205.4-5.8 18-22.3 36.2-14 54.8 11.3-2.6 10.3-17 19.6-21.2 29.5-80 53.3-191 53.3-298-.5-32-2.6-73.4-21.7-85.8h-4.3m-295.4 23.3c-29-4.7-64-.6-80.7 14 9.3 17.5 7.7 53.7 6.2 85.8 11 25.8 41.4 31.5 80.2 29.5 28-25 52.2-53.3 64.7-94.2-34.2-1-60.6-9.8-70.4-35m162.4 64.5c7.7 9.8 19 3 25.3-4.2-1.5-5-2-11.8-3.6-17.5-7.8 1-9.8-3-18-1.5l-3.7 23.3m72.4 4c3.2-36.6-52.7-5-19.5 17.7 9.3-5.2 18.6-8.3 19.6-17.6m-109.5 21.2c8.8 8.8 16.5 6.7 29.5 2 4.2-12.8-7.7-24.2-25.3-21.6-1 7.2-4.7 11.4-4.2 19.6m583.4 14c0 25.4 1 58.4 9.7 74.5 12-23.2 15-92.5-5.7-108-2.5 9.3-4 21.2-4 33.6m-29.6 80c20.2-26.3 9.3-79.5 2-111.6H826c1 36.8-5.2 82.3 3.6 111.7m-144.8 10c17.6-6.8 9.3-34.3 7.8-53-1-22-.5-44.4-7.8-56.8l-5.7-2.2c-3.2 34.2-1.6 80.8 5.6 111.8m72.4 0c24.8-14.5 13.4-81.2 7.7-107.6H759c-5 29.5-10.2 77-2 107.6m154.7-23.8c11.4-19.7 3-66.2-3.6-81.8l-4-2c-3.2 26-5.3 67.8 7.7 83.8m-350.2-74.5c-4 24.4-19 92 0 111.7 11.4-17.6 4.7-48 5.7-74 .5-16 3.6-28 2-41.4l-6-2-1.7 5.7m239 90.5c11.4-22.2 5.2-70.3 1.5-96.2h-5.7c-1.5 30-14 75.6 4.2 96.2m-161-88.4v54.8c0 18.6-3.5 42 5.8 47 12-2.5 7.8-19.5 8.3-31 .5-27.8 0-61.5-8.3-76.5h-5.7v5.7m-39.3 106c14-2.6 14-22.3 14-35.2 0-22.8-4.7-52.8-7.8-71l-4-3.5c-4.8 32.6-.7 73.5-2.2 109.7M726 513.7c6.2-23.3-2-61-4.2-88H716c-2 27-4.5 71 10 88M504.6 549c20.7-9.4 26-48.2 27.4-78.2.5-14.5 5.2-37.3-7.8-43.5-16.5 29.5-20.6 81.8-19.6 121.6m-139-92.2c21 3 26.8-16.6 13.8-27.4-20-2.6-23.2 16.5-14 27.4m-52.7 6.2c11.4-24.8-34.7-31-27.4 0l5.7 5.7c9.3 0 15.5-2.6 21.7-5.7m35.2 9.8c2-24.8-39.4-10.3-21.8 13.5 10.3-3 21.2-5.2 21.7-13.5m-176.5 19c-43 46.7-81.2 176.5-35.2 241.2 7.2 10.3 21.7 29 35.2 23.8 7.7-19.6-13.4-29.5-21.2-43.4-37.2-64.7 11-164 27.4-219.3l-6.2-2m-76 18c-20.2 22.3-34.7 60.6-49 100-17.7 47.5-49.2 132.3 2 154.5 4.7-20.7-10.4-25.3-12-43.4-2-21.6 4.2-49 10-68 14.4-49.8 48-94.8 56.8-141.3l-2-3.6-5.8 2m160.3 15.6c-4 12.4 7.8 24.8 12 35 36-8 22.7-44.3-12-35m-62.6 37.2c11 3.6 26.4 6.2 37.2 3.6 4-6.7 1-21.2 2-31-20-5.7-42.8 2.6-39.2 27.4m66.8 33c4.6-14 3.6-52.7-17.6-52.7-1 24.5-.5 47.8 17.6 53m82.2-43c-20.2-26-33.6 9.8-31.5 35.2 13-.6 24.8-1.6 31.5-7.8V553m-64.7 50.7c20.7-4.7 33-28 27.4-52.8-20.7 6.2-26 28-27.5 52.7m467.6-31c-8.7 53.3 26.5 96.2 76.7 94 50.7-2.5 93.6-50.6 94-106-50-7.2-112 5.2-170.6 12m-489.2 43c-7.7-25-22.8-42.5-54.8-43 3 27.4 29 51.2 54.8 43m415.4-33.2c-34 2-81.7-14-98.3 11.4-13.5 21.6 2.5 40.8 0 72.8 9.2 0 8.7-8.8 16-10.3-.6 7.7 1.5 13 5.6 16 12-1.5 7.2-19 17.6-21.6 1 8.7 0 19.5 7.7 21.6 9.7-2.6 7.7-15.5 16-19.6-.5 9.3 1.5 16.6 9.3 17.6 3-4.7 3-13 9.8-14-1 7.2 4.8 7.7 4.2 14 9.8 1 8.8-9.3 13.4-14 1 7.7 3 14.5 6.2 19.6 8.3 1.6 7.7-5.2 11.4-7.7 3 3 1 11.4 8.3 9.8 6.2-.5 2.6-10.3 9.8-9.8l1.5 14c41-9.3 12-62.6 14-99.8-12.8-15.2-38.2-1.2-52.6-.2M469.5 584c-9.3 19-16.6 43-25.4 71-7.6 23.6-24.7 53.2-19.5 76 4.7 23.7 32 26.8 50.7 16 10.4-6.2 26-24.8 37.2-41.4C534 674 559.4 638.4 544 586c-32.7-4.5-46 3.7-74.5-2m-278.3 8.3c-22.2.6-31 37.8-9.8 50.7 14.5-7.8 32-12.5 43-23.8-9.4-11-16.2-28-33.2-27m96.2 31c26.4 4.3 56.4-4.6 62.6-27.3-31.6-1.6-58 2.5-62.6 27.3m47 4.2c11 11.4 27 21.7 41 9.8 9.2-50.2-34.2-37.2-41-9.8m-147 23.3v9.8c32.2-1 64.8-1.6 70.5-29.5-33.7-3.5-55 5.8-70.5 19.8M62 656.4c13.3 2.6 32-5.2 33.5-21.2-16-5-31.6 6.3-33.6 21.2m235.2-19l1.5 7.6c16.6 2 41.4 26.4 51.2 5.7-8.3-11.3-36.2-23.2-52.8-13.4m5.7 68.3c10.8-24.3-4.7-53.8-23.4-60.6-4.6 25 9.3 48.2 23.3 60.6m-64.8 9.8c19-10.4 29.5-29.5 27.4-60.5-21.7-1.6-42 37.6-27.4 60.4m76.6-50.6c-5.7 15 .5 34 9.8 41h21.2c8.8-8 14.5-18.2 12-37.4-12-2.6-33.2-5.7-43-3.6m-258.6 33c15-4.7 38.3-1 39.3-19.6-11.4-11-42-1.6-39.3 19.6m166.5 19.7c6.2-8.8 5.7-34.7 5.7-43.4-11.4.6-18.6-3-31-1.5-15 23.3 14 42 25.3 45m48.6-27.4c-35.2 24 13 64.8 33.6 31-12-9.2-20.2-22.6-33.7-31m192 86c-19.2 1.5-39-23.4-55-21.3-10.8 1.6-20 18.6-21 29.5 34 9.3 54.2 32.6 76 54.8 23.7-8.8 47.5-16.6 66.6-29.5 11.3-28.5 22.7-76.6 11.8-113.8-25.8 20.7-44.4 78.2-78.6 80.2m290.2-23.4c11 9.3 44 11.4 56.4 2-.5-12.3-5.7-20.6-9.3-29.4-17.6-2-28.5-11-47-12v39.4M61.8 733c11.8 6.2 32.5 18.6 43.3 4.2-3.6-17.6-22.8-19.6-43.4-19.6-1.7 7.7 0 6.6 0 15.4m286 43c12.3-5.8 45.4-30.6 19.5-37.3l-4 2c-23.4 18.6-70 31.6-111.8 27.4-19-1.5-39.3-18-52.8-3.5 26.8 27.5 105 32 149 11.4m-239-11.5v9.8c8.7-4.7 31 1 31.5-6.2 5.7-1-2-4 0-7.6-12.4-.5-23.3.5-31.6 4m184 35.3c-43.8 0-103.3-25.4-105.4 15.5 49-5.2 75 8.8 109.7 21.8 14-14 35.7-20.2 43-41.4-15.2-1.5-29 4-47.2 4" fill="none"/>
</svg>
