<svg xmlns="http://www.w3.org/2000/svg" viewBox="0 0 1000 1000">
  <path clip-rule="evenodd" stroke="gold" stroke-miterlimit="10" d="M580 132h4.3c5.6 5.2 23.2-2.2 21.3 10.3-6 13-18 6.5-29.2 15.3-23.7 19-27.4 88 11.6 88.6-1.4-28.7.5-54.7 27.8-55.2-5 37 12.5 55.7 45 49 1.4-19-8.8-33.7-6-52.8 4.2-27.8 40.4-48.3 57-23.7-24 2-42.6 42.2-15.7 55.2 11.7-2 7.5-19 17.7-21.8 14 7 16.2 24.5 27.8 33.3 23.2 1.4 38.5-5.6 57 0 16.8 5 23.8 21.3 35.4 27.8l25.4 5.7c34.3 17.6 43 55.6 41.3 102.5 10.2 6.5 19.5 7 27.8 13.5 18 15.3 15.8 44 37 55.2 27-45.6-47.7-75.7-15.7-106.3v25.5c32 26.4 43 84 39.4 139.6-20 5-21.8-8-37.6-8-8.4 15.4 9.3 25.6 10.2 39.5.5 17.7-13 30.7-23.7 43-9.2-.4-16.6 1-23.6 2.5-11 42.2-62.6 43-98.3 60.8 7-11 15-21.8 17.7-37-26.4 8.7-51 25.4-82.6 33.3-7.3 1-8.7 16.2-15.7 11.5-7.4-11-1.4-29.6 0-43-8.8 0-19 1-25.5-2 3.7 27.4-14 49.7-2 72.4 59.5-7.5 59.5 44.4 62.7 92.7 18-1.4 30.6-7.4 41.3-15.8 2-20 5-38.6 6-59 20-2 30.2-13 35.7-29.7 31.5 7 34.3-14.8 53-21.8 16 9.3 30.5 29.7 33.3 45.5-8.4-2.8-20-2.8-29.7-4.2-11 8.8-6.8 23.2-9.6 35.7-5.6 24.6-19 50-21.3 76.5-27.3 15.3-77 37-51.4 80.7H824c-7.5-9.3-30.7-5.6-23.8-23.7-9.7-2.8-1.4 13.4-11.6 9.7-9.7-24 30.6-30.2 29.2-59-34.8-.4-50.6 17.7-72.8 29.8-13.5-15.8-21.8-37.6-45-43.6-6 13-11.6 25-25.5 29.6-14 4.2-29.7-1.4-45.5 2-15.3 3.2-22.7 12-35.3 12-7.4-.5-15.3-4.7-23.7-4.2-16.2 1-31 10.7-49.2 8-13.4-2-24-10.8-35.3-9.8-28.8 2.3-36.2 25.5-72.8 15.8-6-2-9.7-7-17.6-8-12.4-1.3-26 6-41.2 3.8-8.8-1-16.7-9.3-26-9.7-14.8-1-28.3 7.4-43 4.2-14-3.3-34.4-22.3-61-12-12.4-5.7-10-20-17.5-31.7-8.8-12.5-31-18.5-27.8-45-15.3-8.3-30.6-9.7-41.3-21.8-12-14-6-36.2-21.3-49.2-27 9.8-3.3 40 3.6 55.2-8 8-23.2 18.6-15.8 35.2-9.7 2.4-12 11.6-21.8 14-24-12.6-52 0-68.7-19.6 17.2 2 27-3.7 35.3-10.2 6.5-20-5.6-42.2-3.7-62.6.4-6.5 6-12.5 7.8-21.8 4.6-24.6 0-38 25.5-45 1-18.6 10.7-27.8 19.5-37.6-1.4-5-7-16.7-3.7-19.5 20.5-1.8 27.5 10.3 33.5 23.8C116 592 99.7 604.2 100 631.6c21.4 2 27-29.2 47-35.3 10.2 3.7 7.4 20 23.7 17.7-7-24.2 8.8-37.6 9.7-53.4 1.4-13.4-8-25.5-5.6-39 1.4-8.4 9.3-13 11.6-21.8 4.2-14.8 0-28.3 1.8-45-14-4.2-34-6-53-8.4-17.5-1.4-41.2 2.8-43-13.5 40.3-6.6 99.7 14.7 135.5 0-37.6-28-143.8 13-161-35.3 40.8 1 95 2.3 133.6 3.7 10.6.5 27.4 8 29.7-8-27-11.5-79-9.7-124.3-9.7-30.6 0-65 7.5-65-19.5 63.7-1.8 141.6 2.3 195-2.3-2-21-27-16-45-16-54.4 0-119.3-2.7-169.4-1.8-.5-7-10.2-11.6-6-17.6 50 2 105.8-4.6 153.6-3.7 13.8 0 29.6 8.3 41.2 0 .5-10.3-13-7-15.8-14-60.3-2.3-131.3 5.5-182.8-6 1.4-6.5-2.8-18 1.8-21.8 37 2.8 87.2 4.2 128 6 14 1 35.8 10.6 41.4-8-19.5-15.2-76-10-116-13.3-11.8-1.2-52.2 2-56.8-10v-5.6c54.3-8 136.8 4.2 184.6 0 .5-14.3-20.4-12.5-31.5-14-33.3-4-87.6-3.6-117.7-7.8 21.3-16.2 67.3-9.7 104.4-8 27 1.5 53 2.5 74.7 8 2.8 8 4.2 18 9.7 23.7 14.5-12 22 3.3 41.4 2 5-19.6.5-46-2-65-39.8-19-109.8-18.6-159.5-25.5 41.2-27.8 117.3-5.6 171 0 3 10.7 5.2 21 9.8 29.7 6 4.2 20 0 26 3.7 2.8 21.8 21.3 28.3 35.3 39.5-7.8 44.5 33.5 49.6 16 92.3 10.6 7.4 21.2 26.4 37 27.8 14 1 17.6-9.3 31.5-14 21.8 20 44 0 59-13.8 33.3 8.4 69-9.8 98.2-17.6-11.6-28.8-52.4-28.3-66.8-55.2-4.7-34-13-76 6-100.2 11-14 28.3-13.2 43-24M299 270c14-4.7 14-46.5 2-53-9.4 6-8.5 43.6-2 53m31.5 53.2c10.2-19.5 9.3-49.2 2-69H328c1.4 21.7-15.3 54.6 2.3 69M301 466.6c20.3-55.7 28.2-188.8-37.2-193 48.7 33 47.3 147.5 19.5 202.7 7.4-1.8 10.2-7.8 17.6-9.7M830 277.8c-18-8-17.6 8.8-26 15.8-24.6 9.8-60-27-76.6 0 11 8 29.2 8.8 33.4 23.7-4.2 12.5-27.4 6.5-37 13.5 27.3 32.5 65.8.5 90.4-2 30.2-2.7 42.2 16 59 35.8 9.6-4.2 16.6-10.7 19.4-21.8-14.4-8-2.3-42.2-17.6-49.2-12-2.3-5.6 14.4-17.6 11.6-14.4-4.2-23.7-13-27.4-27.4m-598 27.4c12.5.5 16.7-16.7 13.4-25.5-14.8-2.8-19.4 13.8-13.4 25.5m108 45.4c24.7 2.3 23.3-40 11.7-51-6 14.4-3.4 38-11.7 51M661 366.4c-15-6-37.7-30.6-17.7-47.3 9.7-6 28.7-2.2 35.2-11.5-65-38-79.8 81.6-17.6 59M263.7 333c8.8-2.8 16.7-7 23.2-12l-2-9.8c-13-9.8-27.3 5-21.2 21.8m385.5-2.3c-1.4 20.8 13 30.6 31 26 1.5-11.6-9.6-11-11.5-20 7-1 9.3-6.5 17.6-6-2.8-22-28.8-6.5-37 0m-88.7 6c14 4.2 25 11.6 43 12 4.7-3 5.7-16.6 2-21.7-14-3.3-42.3-4.7-45 9.7m285.3 1.8c-63-24-75.2 63-29.7 69 8.4 1 24.6-2.2 29.7-9.6-11.6-10.3-35.7-12.6-29.7-33.5 1.4-4.6 10.2-12.5 19.5-12 11.6 1 5.6 10.7 20 12 2.2-14.3-5.2-18.5-9.8-26m-277.5 15.8c18.6 7.4 40.4 35.2 60.8 21.8-2.3-15.2-39.4-32.3-60.8-21.7m-301 20c8.8-.5 20 1.4 23.7-4.2 2.3-19.8-29.8-17-23.7 4.3m94.6-14c-10.6 37.6-49 46.4-43.5 100.2-5 8-8.8 17.2-8 31.6-8.3-.4-10.6 5.2-19.4 4.3-7.8 11-1.3 24 2 35.2-4.7 6.5-14.4 7.5-19.5 14-1.8 7.8-2.3 17-2.3 27.2 3.7 7.5 12.5 10.2 18 15.8-15.7 4.2-20 20.8-18 43 6.5 4.3 15.8 5.6 20 12-14 3.4-20.4 25.2-12 39 8.7 6 25.4-1.8 29.6 0-4.6 15 1 25.6 8 34 20.3 2.2 27.7-8 39.3-14 2 25 42 19 55.3 8 14.4 15.2 53.3 5.4 64.5-6 11 19.4 48.2 11.5 59.4-2 4.2 8 19 5.5 31 5.5 20-9.3 27-53 10.3-70.5H543c-9.6-20.4-43-14-57-2-10.2-16.6-36.2-14.8-51-4-4.2-6.6-8.8-12.6-14-17.7h-23.6c11.6-21 3.2-45-15.8-51 14-12.5 23.7-53 2-63-33.5 0-30.7 36-33.5 66.7h-15.7c2.8-6 8-9.3 6-19.5-5-20-12-35.7-6-57 2.8-10 15.3-14.5 15.8-23.8 1.5-16.3-17-26-9.6-43 8.3-6 22.2-6 29.7-8 4.3-14.4 12.6-47.3-4-55.2h-4m78.5 35.6c22.3-4.2 48.7-18.6 80.7-21.3 10.7-1 25.5 3.7 33.4-6-40.3-8.4-99.2-2.8-114 27.3M832 382.2c8-.5 11.7-5.6 11.7-14-9.8-1.4-16.7 7-11.6 14m-100.2 57c25.5-41.7-37-72.4-66.8-51.5-28.3 19.5-40 100.2 0 114-7-27.7-21-96 19.5-102 19.5-2.7 41.8 15 21.8 35.3-5-2-15.3-3.7-20 0 2 28.3 38 15.3 45.5 4.2m181-45.4l8-2c-.6-9.2-8-12-17.7-12-1 9 3.3 12.6 9.8 14m-368 17.6c9.4 3.7 20.5-2.8 35.4-3.7 22.3-1.8 52.4 7 63-8C620 377 559 389.2 545 411.5m334.4 12c.5-12 11-17 8-27.7-21-5.2-31.7 27.8-8 27.8m-615.6 0c8.8-1 21.3 2 27.4-2 0-8.7-2.3-15.2-6-19.8-13.5 1-23.8 5-21.4 21.8M932.3 441c11-3 9.3-26.8 4.2-35.6-16.8 2.8-30.2 33.8-4.2 35.7m-39.5-25.4c-1.4 12.5 2 21 10.2 23.7 9-10.3 3.7-46-10.2-23.7m-318.2 3.7c16.2 8 36.6 23.2 57 15.8l2-6c-3-20.4-46.5-22.3-59-9.7m-112.3 14c7 5.5 11.6 9.2 23.7 6 1.8-17.7-26.5-37.2-23.7-6M432.6 571c23.2-4.7 9.3-29.2 6-45.5-7-31.5-8.8-67.7-8-104l-4-4c-20.4 39.3-5.6 115 6 153.5m344.2-90.5C791.6 491.2 800 512 826 506c-5-19-26-26-23.7-47.3 1.4-12 11.6-14 14-27.3-28-13.5-47 20-39.5 49m-283-27.7c3.3 14.4 2.4 39 0 53.4 18.2 0 27.5 9.4 39 16 20-7 54.4.4 59.5-22-7-13.8-39.4-4.5-51.5-7.8 5-27 34.3-30.2 45.5-51-22-17.7-82.7-13-92.4 11.5m-114.3 31.5c17.6-1 19-43.6 3.7-49.2-4.6 13.5-4.6 34.4-3.7 49.2m444.5-8c21 13.6 58.5 10 80.7 22 7-9.4 13.8-19 17.5-31.7-17.6-18-110.4-51.8-98.3 9.8M248 463c8.3-1.5 12.5 1.3 15.8 5.5l7.4-3.7c1.4-7.4-.5-12.5-3.7-15.8-11.2 0-21.4 1-19.5 14m326.6 9.6c18-4.2 44-.5 53-14-10-22.2-48.4-.4-53 14M454.4 494c9.3 2.3 21.8-4.2 23.7-15.8-6.4-3.7-15.7-4.2-25.4-3.7-3.3 6.5-.5 13.4 1.8 19.5m131.8-11.6c7 14.4 40 20 47.3 2l-2-9.8c-16 1.3-40.2-4.8-45.3 7.8m-368 17.6c11.2-7.4 9.4 7 19.6 6 5-8.8-5.6-8.8-3.7-20-11-1.3-17.6 2.4-15.7 14m31.5-14c-15.3 29.8-14.4 102-12 161.5 2.2 48.7-4.3 84.4 27.7 94.6-10.2-44-21-107.5-15.8-171 2.3-27.4 1.4-62.7 6-85h-6m678.8 18.2c7-1.8 13-4.2 11.6-14-11.5-2.3-16 5.6-11.5 14M617.7 500c-15.3 3.3-34.3 24.2-33.4 33.4 14-5.6 44.5-12 62.6-19.5.8-5.2-3.3-4.7-2-10-7.8-5.4-19-5.8-27.3-4m125.7 11.6c-24 1-36.6.5-60.8 0 2 21 58.5 20 60.8 0m-279.2 18c-5.6 15.4 8 21.4 23.7 17.8 3.6-4.7 4.5-12.5 3.6-21.8-9-5.2-18.6 9.7-27.4 4m122 21.4c30.2-13.4 86.8 4.2 112.3-17.6-31.6-21.3-95.6-6-112.3 17.6m179 6c34.3 7 62.6-12 90.5-11.5 23.2 0 46.8 23.2 68.6 8-13.4-9.4-29.2-18.2-45-22-34-7.3-65.4 13-92.8 10-14.4-1.5-19.5-11.7-31-16-7 13.5 2.3 26 9.7 31.6m-556.6-6c4.6 3.7 12.5-2 21.8 0 3.7-22.2-25.6-22.2-21.8 0m521-15.7c-11.7 15.3-52.5 10.2-53 29.7 21.3 2.8 47.8-6 65-14 0-5.4-1-12.4 1.8-15.7h-14M525 537.6c-2 10.2-10.7 23.2-3.7 31 8.8.6 14-3 19.5-5.4 0-14-.5-27-15.8-25.6M755.5 551c-19 8-40.8 13.4-55.2 26 19.5 9.8 51 .5 60.8-12-.4-6-3.2-9.8-5.5-14m92.3 4.2c-4.2 8.8 3.7 29.7-2 41.3 18.2-2.3 25.6-14.8 25.6-35.7-5.5-3.3-14.8-11.6-23.6-5.6m-246 25.5c21.4 3.3 28-8.8 31.7-23.7-20-8.8-29.2 8.4-31.6 23.7m200.4-14c-2.8 18.2-24 17.7-29.2 33.5 13.4-2 37-11 37-33.4h-7.8m-53 37.6c17.7-6.5 32-16.3 41.4-31.6-14.4 1.4-44 13-41.3 31.6M458 579l-3.6 1.8-2 3.7c30.3 16.7 85.5 14 122 20 11.7 1.8 27 11 31.2-4.3-40.8-19.5-97.8-12.5-147.5-21.3m-245.7 25.4c5.6 0 11.6 1 14-2l-4.3-15.7h-9.7v17.7M616 617.8c-6 41.8-11.2 94.2-14 132.2 19.5-11 23.7-51 25.5-83 1-16.3 3.7-38-6-49.3H616m29 12.2c-17 31 42.8 23 29.8-4.3-11.6 0-16.7 6-29.7 4.2m-444.3 9.6c-4.2 5-6 12-6 21.8 11-.5 19-3.7 25.5-8l-2-15.7c-7.3-1-9.6 3.8-17.5 2m-25.5 65c5-14.5-11.2-23-9.7-39.6-31.2 4.3-8 38.2 9.7 39.6m19.4 6c11.6-2 18-8.4 21.8-17.7-11-12.6-31 2.3-21.8 17.6m450.5 8h17.7c4.2-4.3 12.5-15.4 6-23.8-6 3.7-17.2-4.2-25.5-4.2-3.2 11.2-4.6 20 2 28m218.4-2c3.7 3.3 3.2-1.4 9.7 0 1-5 9.3-21.3 0-23.7-3.7 7.4-9.7 12.5-9.7 23.6M98 720.4c-1.3-10.2 0-23.2-9.6-25.5.5 11.5-2.3 25.8 9.7 25.4M67 750c9 0 10.3-6.8 15.4-10 0-13.5-4.6-22.3-5.6-35.3h-6c-.5 14.7-6 33.7-3.7 45.4m657-18c3.7 3.6 13 1.3 19.5 2.3 7-5 8.4-22.8 2-29.7C733.6 709.2 722 720 724 732m111.8-5.6c13 0 7.4-7 8-18H838c-1 6-7.3 12-2.2 18m-611.5 41.3C229 757.5 240 749 237.7 738c-21.3-2.8-30.5 21-13.4 29.7m295-21.8c-82.5-2.4-161.8 1.3-234.2-3.8l-3.6 2v6c95 8.7 209.2 16 306.6 5.4-17.6-12.5-45.4-8.8-68.6-9.7m102 25.4c2.8 10.7 21 12.5 31.6 4.2-2.8-21.8-37.6-29.7-31.6-4.2m222.2 12c10.2-4 17.2-12 25.5-18-5.4-22.3-37.4-1-25.4 18m-566.4 9.8c8-2 1.4-18.6 6-23.7-19.4-6.5-20 23.7-6 23.7m112.3 5.6l6-2c-1-9.2 3.2-13.4 2-23.6-23-10.2-27 22-8 25.6M429 795c6 2 7.8 8 17.5 6 1.4-9.2 1.4-19.4 3.7-27.7-13-6-23.2 6.5-21.3 21.8m66.7 8c4.2-6.5 1-20 2-29.7-23-9-25.7 31-2 29.7m82.6-9.8c8.4.5 7.4 10.7 19.5 8 6-10.8-4.6-19.6-5.6-29.8-15.3-3.3-14.8 9.3-14 21.8m-238 8c2.4-5.7-1.8-18.7-1.8-28-22.2-3.2-20 33 2 28m187-23.8c-2.4 8-3.3 18 1.7 23.7h11.7c-.5-9.2-1.4-18.5-3.7-25.4-4.6-1-4.2 3.2-9.7 1.8m-96.5 37c6.5 1 3.2-8.3 6-11.5-7-1.5-6 6-6 11.5" fill="none"/>
</svg>
