<svg xmlns="http://www.w3.org/2000/svg" viewBox="0 0 1000 1000">
  <path clip-rule="evenodd" stroke="red" stroke-miterlimit="10" d="M734.8 112h2c17.8 10 52.4 12 72.7 19.4 25.2 10 37 34 62.8 41.5 8.4 19.2 17.3 35.5 27.7 56.8 10 21.2 8.4 43.5 17.3 66.7 10 24.2 45.5 46 51.4 68.7 10.4 42-6.4 110.7 2 153.3 2.5 13.4 14.3 24.7 19.3 37v4c-4 29.8-14.4 52.5-33.2 67.3-27.7-5-55-3-62.8 17.3-14.4 68.8-9 156.3-10 238-24.6 3.3-51.8 1-78.5 5.8H711c-22.6-7.4-58.8-1.5-82.5-8 1-6.3-3-11.8-3.5-19.7-4-31.6 10-81.4-12-93.8-15.7 8.4 5.5 66.3-13.7 74.7-12-19.4 1.5-64-19.8-72.8-15.3 18.3 13.4 68.7-12 72.7-7.3-21.3-3.3-54.5-15.2-70.8-14.3 13.4-1.4 55.4-6.4 72.2-28.8-3.4-2.6-62.8-25.3-72.2-10.4 16.8-2 52.4-8 74.7-25.6-5.6-2.4-59.4-19.6-73.3-29-3 10.5 67.7-23.2 67.2-11.4-19 4.5-68.3-13.8-76.8-13.3 17.3 0 61.3-13.8 78.6-19.3-8 0-69.2-21.7-80.6-15.3 15.3 4 54.3-6 76.6-6.4-.5-9.4-3.4-17.3-2-5.5-24.7 0-59.3-12-76.6-18.2 30.6-1.3 86.5-5.8 119.6-50.4 0-97.4-3.4-149.3-2-1-35-2-76-6-105.8-1-10-.4-26.2-11.8-27.7-12 13.4-5 54.4-8 70.7-6.3.5-8.3-3.5-15.7-2-1.4-25.2 4.5-57.8-7.4-72.7-21.6 7-1 55.4-13.7 70.7-20.8-8-1-57-17.8-68.7-5.4 17.8-1.4 45.5-6 64.8-6 1-6.8-3.3-13.7-2-19.8-133-3-287-13.8-424-22.3 4.4-34.6 28-59 25.6C36.4 402 22 380 10.3 363c-1-6.8 12 0 10-7.8-10-25.2 16.7-22.7 5.8-43 11 0 16.4-6 17.3-15.8C55.3 312.2 62 337 94.7 330c35.6-8 42.5-57.4 68.7-76.7 36.6-27.7 98.4-33 159.2-39.5 60.3-6.4 128-13.4 202.2-10 13-9.8 27.7-15.7 41-27 12.4-10.5 22.7-26.3 35.6-33.7 8.4-4.4 23.7-6 35-11.8 12.5-6 21-15.3 31.8-17.3 19.7-3.8 42.5 4 66.6-2M676 135.5c9.4 10.8 47.5 8 51-6-11.4-6.4-46.6-7-51 6M595.4 169c19.3-3.4 51-10 57-33.6-21.8 1.5-49.6 12-57 33.6m163.2-33.6v6c11 6 27.2 6.3 37 13.7.6-4.4 7-3.3 6-9.8-3.4-12.8-30.2-12.8-43-9.8m-63.3 15.8c-6.4 31.6 38 28.6 53.4 25.7 3.5-5 1-16 2-24-12.4-6.8-42.6-12.7-55.4-1.8m-76 27.7c17.7 13.2 44-5.6 68-4 2-11-3-15.4-5.3-22-26.2-3.8-53 7-62.8 26M762.5 153c-5 9 1.5 16.3 0 27.7 17.3 6 39.6 21.7 55 17.7 4-37-26.8-47.5-55-45.5m61 15.8c7.3 15 19.6 24.2 31 35l8-5.4c-1-19.2-23.8-44.4-39-29.6m-251.8 39c8.4 3 23.2-3.4 31.7-8l-2-11.3c-17.8-1.4-30.2 3-29.7 19.3m68.7-6c14.3 20.4 54 3.5 82.6 8 .5-36-68.7-21.2-82.6-8m114.2 20c24.7 0 48.4 31.6 66.7 13.7-13.4-29.7-46-39-82.6-45-2 18 10 21.3 16 31.2m78.5 7.8c15.3 8.4 15.8 31 37 33.6 2.6-26.7-14.7-49-31.5-63.3h-7.5c-1 11.5.5 20.4 2 29.8M556 247.6c35.5-1.5 51.3-22.3 78.5-31.7-22.2-21.3-76.6 13.3-78.6 31.6M674 220c-4.4 31.6-2 68.7 11.5 88.5 15.3.5 28.6 3 45.4 2 8.3-22.7 13.7-59.3 6-86.5-20.4-6-38.7-5.5-63-4m212 39.5l6-2c0-15-4.4-24.7-7.8-35.6h-8c-4.4 13.2 0 32 10 37.5m-294.7 0c-4.5 24.2 27.7 53.4 43 68.7 14.4-4.5 24.2-13 33.6-21.8-5.3-24.7-7.8-52.4-15.7-74.6-25.2 4-57.4 7.4-60.8 27.7m169-25.7c-12.8 17.3-14.3 54.3-10 82.6 16.4 1.4 29.3 22.7 43 15.8 8.5-4.5 6.5-18.3 10-27.7 5.5-15.8 22.7-41 10-54.8-16.8-6-34-18.4-53-16M501 312.5c25.7-10 38-32.6 51.4-55-34.6-.4-50.4 28.3-51.4 55M289 334c8.3-7.8 2.4-21.6 4-29.6 4.4-22.2 24-25.2 31.6-43C277 242.2 256.3 314 289 334m542.3-72.5c-8 20.8-16.3 50.4-15.8 72.6 26.2-4.3 60.3-69.6 15.8-72.5M620.6 338c1-11.3-39.5-79-53-72.6-16.2 7.5-32 19.8-33 49 19.3 16.3 43 39 64.8 47 11-3.5 20.7-13 21.2-23.3m-310 0c19.4-13.3 23.3-37.5 51-39.4 10.4-1 15 8 25.7 0-22.8-37-95-6.5-76.6 39.5M275 357.5c-5-17.3-28.6-25.2-29-45-.6-9 8.3-12.3 5.8-21.8-51 5-13 79 23.2 66.8m53.5-10c14.3 4.6 24.7-6.3 37-7.3 20.4-2.4 30.7 11.5 47 11.5 3-39.6-77-43.6-84-4m455.3-2c-43-29.7-154.8-26.2-161.2 33.6 26.2-15.2 57-41.4 98.4-37 24.2 2.5 41.5 17.8 64.8 15.3 1.5-6-3.5-5.4-2-11.8m-263-15.3c-13 11.4-13.4 35-13.8 58.8 18.8 11.4 46 13.8 72.6 17.8 9.4-5.4 13.8-15.3 15.8-27.7-18.8-22.6-41.5-41-74.6-48.8m-43 78.6c17.2-16.8 21.2-47 25.2-76.6-27.2 4-35.6 48-25.2 76.6M198.4 338c-10 42.6 33.6 61 70.7 51-9.3-19.3-46.4-11.4-52.8-33.6-3-5.5-5.5-11.4-8-17.3h-9.8m149.3 29.3c1 12.3 16.8 8.4 23.7 12 12 5.3 20.3 17.2 29.7 23.6 2.6 6 1.6 15.2 9.5 15.2l6-1.5c13.3-43-40-66.8-68.8-49.4M882.2 395c6 0 6.4-5 12-6-6-45.4-39.2-12.8-12 6m43 45c19.3-19.3 9-72.7-19.3-74.7 1.4 22.3 16.2 48 19.2 74.7m-53-14c-.4-13.7-7.8-20.7-9.8-33l-8-2c-3.8 14.8-1 37 18 35m-497-2c6 19-1.5 36.2-4 51.5 42.5-2.5 28.2-83-13.8-82.6-1.5 12.4 13.8 18.7 17.8 31m381.2-25c-5.5 7.3-4 22-4 35 16.3 20.3 34-9.4 43-25.2-5.4-11.4-25.7-7-39-10m-149.3 4c-33 32.7 23.8 111.3 51 102 1-12-12.4-16-19.8-23.3-17.8-19.3-22.7-44.5-25.2-78.6h-6m-395 15.2c-.5 19.8 23.2 15.3 31.7 25.7 15.8-9 43-17 39-39.2-21.3 10.4-43.5 18.3-70.7 13.4M507 404.8c-17 13-4 52 7.8 60.8 24.2-5.4 55.4-3.5 70.7-17.8-1.5-11-3.5-21.2-4-33.6-21.2-7-47-8.8-74.6-9.4M744.6 440c-2.5-11.4-3.4-24.2-6-35-44-6.6-26 60.7 6 35m-436-2c-11 13.4-31.2 17.3-37.6 35.6 34.2 3.5 66.8-26.7 53.5-64.8h-8c-1.4 11-7.4 17.3-7.8 29.2M892 412.8c-2 6.4 5.5 18.8 12 23.2 9-2.5 5.4-17.3 3.5-25.7-5.5.5-12.5-1-15.4 2.5m-569.5 72c34.6 2 48-48.3 27.2-72h-4c.5 32-12.3 51.4-23.2 72m170.6 2c11.5-15.2 6.5-56.2-6-66.6-23.6 3-6.3 62.3 6 66.7M782 457.6c10 12.4 40.5 4 53-4 3.4-44-59.4-41-53 4m-76.6-6c-1 16.4 8 22.4 17.8 27.8 9.4-5 10.4-11 8-23.7-8.5-3-17.4-12-25.8-4m143.4 45c18.3-3.5 5.4-30.2 4-43h-8c-3.4 12.3 3 29.7 4 43m-333.8-17.3c4 21.2 8.4 46 25.7 49 22.7 4 46-26.3 59-39.6-5.5-6.5-4-19.4-10-25.3-32-2-50.4 9.8-74.7 15.8m275-6c0 6.4-5.5 7.5-4 15.3 9.3 12 28.6 13.4 41.5 21.8l15.3-10c1.5-14.2-1.4-24-8-31-15.2-5.4-30 2.5-45 4m-257 84.5c9.4-21.6-7.4-49.8-27.7-55.3-6.5 26.8 12.8 50.5 27.6 55.4m78.6-53.3c-18.8-1-55 30.2-55.4 41.5 0 15.8 23.2 21.8 33.6 33.2 19.3-15.8 38-32.7 47-59-9.8-3.3-12.8-14.7-25.2-15.7m160.7 14c-2.6 16.7 23 33 35.5 43 11.4-9 22.3-19 17.8-39.2-14.3-8.4-49.4-27.7-53.4-4m61.2 33.2c16.3-.5 16.8-16.8 17.3-33-13.8 2.3-22.2 18.2-17.3 33m-94.4-17.3c1 25.2 3.4 48.4 15.8 62.8 13.8 1.5 29.7-10.4 39-19.7-6-24.8-30.6-62-54.8-43m-129.5 48.8c8.4 16.3 28.2 21.3 53 21.8C674 590 676 563.7 676 536.5c-35-18.3-52.4 26.2-66.7 47m105.8-49c-26.6-6-35 37-31 72.7 17.7 9.5 42 0 54.8-7.8-7-21.3-4.4-60.8-23.7-64.8m-161 21.2l-8 4c2 26.7 25.7 31.2 39.5 45.5l10-4c-7-22-28.7-29-41.6-45.4m381 16c4 5.3 10 2.4 16 0 4.3-18.4-19-16-16 0M784 605c14.8-7.3 39-14.2 37.6-31.6-19.8 3.5-34 12-37.6 31.7m74.7-7.8c-41 37.6-30.2 169-27.2 234 11.4-19 6.4-44 7.5-67 4-64.7 9.4-136.3 35.6-171-9-1-12.5 1-16 4m33.7 8c-42.4 21-34 103.7-37.5 172.4-.5 15-2 31.2-2 47.5.6 9-5 26.8 8 27.3 17.3-70.7-7-163 21.7-219.5 5-10.4 15-14.3 15.8-25.7l-6-2m-188.8 12c-1 7 2.5 9.4 4 13.4 18.3-5.5 47.5-.5 53.4-19.3-14.4-7-36.6 6.4-57.4 6m-27.2 6c-9-15-35-12.5-56.8-14 4 19.3 40.5 24.7 56.8 14m-432 43c10.7-51-86.6-71.3-88.6-18 15.3-6.3 34.6-23.7 55-15.2 23.6 9.4 19.7 52-16 39 5 28.7 46 9.4 49.5-6m569.5-43c-17.3 41.6-14.4 134.5-14 194.4 0 10-5.8 27.2 8 29.7 7.4-12.4 5.4-32.2 6-49.5 1.4-63.3 4-123.6 10-176.5l-6-2-4 4m-463.8 64.7c10-46-43.5-67.2-72.7-43.5 35.6-11 80 40 43.5 49.4-10 2.5-15.3-5.4-27.7-4-3.4 34.2 50.5 18.8 57-2M452 674c-2-11-12.8-13.8-17.7-25.7-15.8-6-56.4-13.3-59 10 29.8-8 68.3-7 63 31.7-11 15.8-27.3-6-37.2-2 3.6 44.4 58 23.2 51-14m104 16c8.8-47-71.3-63-82.2-18 17.8-3.4 25.7-17.2 53-11.8 13.3 6.3 22.2 30 6 39.4-8.5 1.5-23.3-4-25.8 3.5 14.3 26.2 46 3.4 49-13.4m208.5 31.2c10-13.3 15-30 9.4-47-10.5-33-71.8-34-80.7 0 19.3 0 38.6-17.7 57.4-6 14.3 9 15 39.7-8 43-9.8-1-12.8-8.8-25.7-7.8-4 27.7 30.2 22.7 47.5 17.8M676 689.6c-4.5-38.6-64.8-54-86.5-19.8 8 5 13.8-3 21.7-4 34.6-5.4 56.4 15.8 41 45-9 2-24.7-3.4-27.2 4 19.4 29.2 54 3.5 51-25.2M244 854.3c4.8 7 17.2 6.4 29 6 23.3-39.2-42-49.5-29-6m47 4c6.3-2 16.2-1 21.7-4 13.8-39-43-32.7-21.8 4m43.4 4c10-.6 18.3-3.5 27.2-6 1.5-13.4-2-22.7-8-29.2-24.2-6.3-27.7 21.3-19.2 35.2m327.8-6c6 7 18.8 13.4 27.7 6 4.3-11.4 0-26.7-4.6-35-18.8-1.6-23.2 11.7-23.2 29m100.3 8c10.4-3.5 10.4-26.2 2-35-30.6-4-22.2 41.4-2 35m-23.7-14c.5-28.6-34.6-17.7-29.7 4 1.6 6.5 5.5 14 21.8 12 4.5-6.5 8-8.5 8-16" fill="none"/>
</svg>
