<svg xmlns="http://www.w3.org/2000/svg" viewBox="0 0 1000 1000">
  <path clip-rule="evenodd" stroke="red" stroke-miterlimit="10" d="M662.8 33.6c-3.6 17-2 51.2 0 62.6 24.3-3.6 6.7-49.2 29.5-55-3.7 8.4-4.7 18.8-4.2 31.7 14.6 2.5 12.5-27 24-33.7-2.7 11-5.3 21.7-6.3 33.6 17.6 2 14.5-17.2 23.8-24-1 9.4-12.4 17.2-6.2 27.5 20.7 0 21.2-29 37.3-27.4.5 10.4-14.5 13.5-10 21.8 14.6.5 17.2-10.4 29.6-12-3.6 5.3-7.8 10.4-3.6 17.7 11 .5 13.5-8.3 23.3-9.8l-2.2 12c12 5 13.5-8 23.8-2.2-5.2 11.4-15 18-17.6 31.6 19.2 10 24.3-19 41-11.8-11.5 17-29 28.5-37.4 49.2 22.8 4.7 35.2-27.5 57-23.8-10 23.8-42 24.8-49.3 51.2 26-5.2 40.4-21.2 59-33-8.8 12.4-21.8 19.6-33.6 29-11 9.2-26 17-31 31.5 22-5.2 39.2-14.5 56.8-25.4 7.8-5.3 20.7-21.3 33-16.2-13.4 26.4-58 38.8-78 64.7 17 9.3 34-8.8 50.6-17.6 13.6-7.3 38-26.5 49.3-12-26 20.2-61.6 30-82.3 55.4 14.5-1 32.6-5.7 52.8-14 5.7-2.6 45-24.3 45-12 0-1-35 18.7-41.3 21.8-16.5 8.8-33.6 9.3-36.7 27.5 28 .5 58-23.3 86-23.3-15.6 17-45 21.2-62.7 36.7 26.5 8 48.8-14.4 68.4-13.3-4 9.8-14.5 14-27 15.5-8.2 17-41.8 8.3-47 27.5 26.4 6.2 63.2-14.5 82.3-9.8-14 6.6-30.5 9.7-45 16-14 5-30 9.7-37.3 21 27 3.8 55-19 84-13.3-4.2 15-24.4 17.6-39 23.3-15 5.7-34.6 7.2-41.3 21.7 30 6.7 63.8-9.8 84.5-12 4 12.6-11.4 11-17.6 14l-21.8 10c-15.5 5-36.2 5-43 19 29 6.3 60-12.8 84.4-11.2-23.3 18-65.2 17-82.3 41 23.8 7.7 59.5-5.3 84.4-10l1.6 12c-21.8 10.8-60 5.2-72.5 25.3 18.6 12.4 51.3-4.7 71 2v10c-15 5.6-42.5-.6-51.4 11.3 5.2 13.5 36.3 1 47 8.4-6.6 20.2-50 3-60.5 19.7 8.2 17.2 48.6 2.2 58.4 17.7-9.3 6.7-36.8-4.2-43 5.7 3.6 13.5 31.6 2 37.3 13.5.5 8.7-12.4 5-9.8 16 23.7 18 35.6 47.6 43 82.3v2c-3.2 41-28 82-68.4 88-21.2 3.2-50.7-2-72.5-6-15.4 57-5 141.2-6 208-41.5 0-100 9.3-141 9.8 3.2-71.4-10.8-201.3-84.3-153-2.6 31.5 0 68.2-5.7 96.2-34.2-4.7 13-83.4-23.8-86.4-6.2 27 3.6 69-11.4 86.4-11-19.2 8.3-70-8.3-88-20.7 4.2-13 45.6-15.5 68.4-.5 6.7.5 20.2-7.8 19.7-9.8-21.2 8.3-75.6-14-80.2-30-6.6-13.5 63.2-27.4 84.5-13-18.7 4.7-69-7.8-92.2-4.7 1-8.8 2.6-15.5 1.6-4.7 11.8-5.2 33-5.7 53.2-.5 12.4 6.7 37.3-12 35.2-5.6-27 1-68.4-2-92.2-40 6.2.5 82.3-31 98-1.6-34.3 2.5-62.2 1.5-96-12-1-21.7 0-27.4 5.8-3.7 26.4 4 73.5-13.6 92-3.6-26.3 1.5-61 2-90-39.3-5.6-32 62.7-33.6 98-.5 19 1.6 35.6 0 49-27.4 4.3-62 1.7-90 5.8H218c-12-22.8-3-66.8-12-92-52.7-16.2-113.3 7-168.7 0-17-88-24.3-185.5-27.4-288v-31.5C9.4 480.3 29 426 53.4 376.8c25.4-14 63.7-14.5 103.6-14 29 22.3 50.3 51.8 74.6 78.2 11.4 34.7 19.2 73 23.8 114 11.4 5 22.8 10.7 36.8 11.8 87 4.6 201.4-10 290.4-2 33-16.7 67.8-57.6 45-105.7-60.5-14.4-105 6.3-133.5 35.3-9.7-10.8-17.5-24.3-27.3-35.2 3.6-8.7 13-10.8 12-23.7-6.8.5-18.2-4.7-27.5 0-12-24.3-35.7-47.6-43-70.4 53.3-6.8 73.5-45.2 76.6-102-13.5-7.3-29-14.6-45.6-24-14-7.7-37.8-13-36.7-31 27 4.2 47 25.3 68.3 29.5-.5-30.6-50.8-28-55-61 30-7.3 41 30.4 67 27.3-9-26.4-38.4-32.6-49.3-56.4 28-13.5 40 35.7 70.4 38.8-5.3-29.5-49.3-40.4-41-70.4 32.6 4.2 28.5 44.5 60.6 49.2-3.6-32-28-44-38.8-69 7.2-.4 6.7-8.7 17.6-5.6 17.6 21.7 23.8 55.4 50.7 68.3-3.5-34.7-28.4-59-31.5-88 28 .5 22.8 56.4 49.2 66.7C581 111.8 550 84.4 553 59c22 6.7 17.7 55.4 41 66.7-.5-25.8-18-54.3-9.3-76.6 15.5.6 17.6 21.8 21.2 35.8 4 14.5 4.6 33.6 16 41 12.4-24-12-63.7 0-86.6 5.7 8.3 6.7 22.8 9.3 35.7 2.6 11.3 2 28.4 12 33 11.3-18 7.7-51.2 14-74.5h5.5m115.5 121.7c-5.7-34.2-29-52.3-66.3-41.4-37.8 10.8-81.3 44-74.5 94.2 16.6-1.6 19.7-16.6 25.4-29.5 19-16 38.7-31.6 68.7-37.3 27 13.5 19.7 60 19.2 96.3 24.2-7.7 33-51.7 27.3-82.3m-68.4 102c44-7.8 40.8-76 23.2-109.7-40 12-75 39.8-78.2 82.3 21.2 1.6 22.3-27.5 35.2-27.5-5.7 11-13 20.7-13.5 36.8 15-.4 17.6-13.4 29-17.5-3 6.7-6.2 13.5-5.7 23.8 8.8 3 10.4-11.3 13.5-7.8-3 4.2-4.6 11-3.6 19.7m-84.4-66.8c-26.4-2.6-58.5 7.2-82.3 33-19.2 21.3-61 91.2-58.5 119.7 2 28 35.7 60 52.8 72.6 8.3-6.7 20.7-12.4 31-19.7 9-5.8 24-14 21.8-25.4-8.8-2-38.8 2-47 0-5.8-27 0-68.4 5.6-95.8 16.6-20.2 41.4-32 76.6-33.6 10.8-11 5-37.8 0-50.8m-55 90c4.8 6.8 21.8 1.7 27.5 8 3.2 7.7-12.3 11.8-11.8 23.7 10.4 6.3 28.5-3 35.7 0-4.8 5.8-5.8 19.3-2.2 27.6 36.2 0 25.4-52.8 17.6-76.6-25.3-4.2-60-3.2-66.7 17.5M596 412c36.2-18.6 53.8-38.3 88.5-63 22.8-16.2 46-29.6 60.6-43 9.4-8.4 38.4-37.4 17.7-43-13 15.4-31 30.4-49.2 45-32.6 26.4-65.2 52.2-100 74.5-17 10.8-42.4 19.2-46.5 37.2 7.8 4.7 19.7-3 29-7.7m61-147c-3 27.4 0 48.6-11.8 66.2 29.5-3.6 60-23.3 70.4-52.8C695.4 274.8 681 265 657 265m129 25.3c-32.6 23.3-61 58.5-95.8 80.3-26 16-54.4 31-78.2 45-8.3 4.7-22.8 7.2-23.8 19.7 23.3 6.7 58.5 1.5 82.3 7.8 22.3-9.2 36.8-27.4 52.8-45 16-16.6 30.6-36.7 49.2-45-3 16-20.2 28-17.6 43 25.8-1.6 45.5-10.4 68.2-15.6-5.2-32.6-7.8-68-23.3-90h-14m-311 92c17.5 20.3 25.8 50.8 48.6 66.8 5.2-2 10.3-2.6 17.6-2 1-17-15.5-29-25.4-41.5-10.3-13-19.7-29-35.2-35.2h-4.2l-1.5 12m-17.7-5.7c-37.8-10.3-8.8 59.5 19.2 36.8-3-7.8-10.4-34.7-19.2-36.8M74.7 415.6c27 7.2 66.8-6.2 92.2 2 9.2 3.2 14 17.2 21.6 10 2-51.3-99.4-60-114-12m611.5 49.2c46.2-17.6 86.6-40.4 141.4-49.2-.5-7.2 1.6-17-2-21.2-56.4 13.4-109.8 30-139.3 70.4m-556.4-47c-44-.6-82.3 33-82.3 70.3 22.8-6.6 39.3-29.4 62.7-29-27 16-60 27.5-62.7 68.4 25-.5 32-28.5 51.3-27.4-43.5 31-77 81.8-72.5 154.8 19.3-5.7 15-29 19.8-43 16.6-54.3 49.7-98 117.5-100 17.6 6.3 27 21.3 50.7 21.3 2-26.8-32-34-50.7-47 18-2.6 27 13.4 43 6.2-8.3-32-46-34.2-76.6-39.3 21.7-1.7 46 3.5 61 2 0-23.8-35.7-37.3-61-37.3m662.5 12c-9.3 2-27 7-37.3 11.3-11 4.7-63.3 31.6-62.7 41.4 1 23.3 50.7-8.8 57-12 33.5-17.5 66.2-14 82.2-37-6-13.6-26.3-7-39.3-3.8m-298 35.2c6-3 9.7-8.8 8.2-19.7-14.6-5-14.6 15.7-8.3 19.8M713.6 502c26.4 40.4 62 71 106 93.8 21.8-31 20.3-92.2 15.6-138.7-50-1.5-93 18-121.5 45m63.2 105.7c8.8 8.8 18 25.3 33 21.7-.4-35.2-35.6-54.4-59-74.5-11.8-11-24.2-20.8-37.2-31.2-12.4-11-22.2-27-38.8-31.6h-4.2c11.5 62 69.4 78.2 106.2 115.5m-633-86C50.3 532.2 38 649.8 45.6 749c2 31 4.7 79.2 37.3 86 10.4-27-7.2-60-9.8-96-6.7-85.3 6.7-192.5 86-190 17.5.6 32 12 49 10-8.2-27-30-41.4-64.6-37.2M114 574.6c-24.8 34.2-45.5 146-15.4 184.3 13-66.4-2-175.6 70.4-176.7 14 0 25.4 12.4 39.3 2-15-32.5-69.4-31.5-94.2-9.7M717.8 614c-7.8-.6-2-13.5-10-14-3 5.6-2 15-11.8 14-.6-4.3 5-15-2.2-18.2-6.2 2.6-10.4 6.7-17 8.3 2.5-8.7 11.8-10.2 9.2-23.7l-23.3 7.8c.5-7 1.5-13.8 4-19-6-.6-16 4.6-17.5 1.5V559c-43.5 6.2-30 43.5-26 81.8 4.8 40-8.2 85.4 0 118 29.6 8.4 54-15.5 72.6-17.5-.5 9.3-6.7 12.4-10 19.7 9 42 20.8 81.2 27.5 125.3 22.8 16 47-8.3 76.6-7.8 5.6 4.6 12.3 12.4 21.6 7.8-11.4-61 19.2-119.6 11.4-171-.5-5.6-2.6-19-11.4-21-10.3.4-9.3 12.8-17.6 15.4 4-8.8.5-25.3 1.5-37.2-11.4-3-15.5 11.3-19.2 9.8-2.6-8.8 5.7-17 0-23.3-6.7 0-13 10.3-16 7.8V647c-9.3-3.6-14.5 7.3-17.6 4.3 1.5-5.2 7.2-12 2-17.6-12.3-2.6-13.4 6.2-21.7 7.2 1-6.3 4.2-10.4 4.2-17.2-24.5 3-20 7.7-9.5-10m164.6-8.2c-4-4.2-4.7-12-7.8-17.6-33.6-2-13 24.4-4.2 33.6-9.8-4.7-22.2-18-35.2-7.8V635c11.5 2.6 23 5.2 31.7 9.8-8.8 3.7-23.3 2-31.6 6.2-.4 8.8 3.2 14 4.2 21.2 11.4 4.7 21.7-5.7 35.2-5.7 1 4.2 4.7 5.7 3.6 12-8.3 3-17.6 5-21.2 13.4 5.7 23.7 30 13.3 38.8 0-3 6.6-6.7 23.7 0 29.4 6.2 1 7.2-3.6 14-2 1.5-11 1.5-23.4 9.8-27.5l9.8 13.3c11.4-2.6 21.2-7.2 23.3-19.2-3.6-8.2-15-8.7-15.5-19.6 12-3.6 17.6 7.2 29.5-2 0-8.4-.5-17.7 2-24-5.6-5-21.6 0-25.8-7V627c5.2-3.6 10.3-6.6 17.6-7.7 3.6-44-29-17-38.8-10 4-7 12-19.6 5.7-31.5h-12c-4 5.2-4 14.5-7.7 19.7-9.3-2-1.5-12-3.6-23.3-22.2-17.8-14.4 22.6-21.7 31.4M204 702c3.2 34 37.4 61 39.4 99.8 1 29-11 53.8-5.7 88l7.8 8.3c22.8 1.6 53.3-3.6 80.2-4 5.7-15 11.4-42.6 4-59-9.7 2-19.6 2.5-29.4 4C333 814 361 774 347 714c2 5.7 6 9.8 16 7.8 0-40.4 10.3-88-2-123.7-90-38-165 8-157 104M490.5 594c0 13 14.5 12.4 23.3 7.8 6.2-16-21.2-18.7-23.3-7.8m-49.2 3.6c18 17.6 43 28 62.6 43 17-13.4 40.4-20.7 45-46.6-26-1.6-28.5 20.7-48.7 19.7-18.5-1.6-30.4-28.6-59-24v7.8m79 53.4c.4 11.3 18 18.6 27.3 27.4 6.7 8.8 15.5 25.4 27.4 23.3 13.5-27.6-22.3-38-29.5-57 8.3-18.7 32-23 33-49.3-21 2.7-59.3 43-58.3 55.5m76-53.4c-19.2 38.3-12 117.5-7.8 166.7 7.8-.5 8.3-7.2 15.5-7.8 4-36.2 4-73.5 4-111.8 0-17.2 5.3-39-7.7-47.2h-4M404 704c-1-33-1-64.2-1.5-94.3-7.8-5.2-8.3-13-21.7-7.8 3 43-4.2 111.7 2 156.8 1 10.3 3.2 21.7 13.6 25.3 18.4-9 9-47 7.6-80m-260.4 55c7.8 15 21.2 27.3 29.5 38.7 10 15 18.7 34.7 35.3 35.7 11-30-17-53.4-23.8-78.7-13-51.2 5.7-98 7.8-145-75-43-75 97-48.7 149.2m284.2-135.3c12 9.3 25.4 17 31 33-10.8 14.6-34 28.6-23.2 53 26-13 44.5-32.7 60.6-55-16.6-20.7-40.4-34.2-68.3-43v12M555 645c3.7 12 12 19.2 21.8 25.4l5.7-3.7c-1-13.4 1.5-30.6-2-41.4-17-1.6-19.7 10.3-25.4 19.7m-129.3-5.7c.5 12.4-1.5 27.4 2 37.2 13-3.6 23-9.8 23.4-25.3-6.6-6.8-13.4-16-25.3-12m92.2 27.5c-26-6.7-49.8 27-59 52.8 24.7-1 34-18 51.2-27.4 13.5 10.4 27.4 31.2 55 21.8-14.2-17-26.6-42-47.3-47m-17.7 57c10-2.2 24.4 1 25.4-10-4.7-17.6-41-7.7-25.4 10m-29.5 5.5c-13 .6-33-6.2-35.2 9.8 9.3 15.2 45 10 72.5 10 26 0 66.4 8.8 67-16-23-11.4-71-5.2-104.2-3.7m-317.4 102c5.2-15.6-7.8-32.6-14-49.2-6.7-17.5-13-35-19.7-50.6l-3.6-2c-16.4 37.7 7 98.8 37.4 102m335-69c-13-6-47.2-19.6-50.8 4.3 34.2 9.8 72 5.2 103.5 15.5 6.8-6.7 24-2 24-15.5-25-4.7-49.7-10.4-76.7-4.2M731.7 927c17 6.8 49.2-1.5 72.5-1.5-1.5-6.7-3.6-12.4-6.2-18-32.7 3.5-60.6-11.5-66.3 19.6M269 921.5c-3.7 6.2-8.4 14.5-3.7 23.3 21.2-4.2 49.7-2 66.3-11.4 0-5.7-3.6-8.3-3.6-14-19.8-8.3-37.4 2.6-59 2" fill="none"/>
</svg>
