<svg xmlns="http://www.w3.org/2000/svg" viewBox="0 0 1000 1000">
  <path clip-rule="evenodd" stroke="gold" stroke-miterlimit="10" d="M587 10h9c39 1.8 76.4 19.8 102.2 41 13.2 10.7 27 20.3 36 32.3 31.2 42.6 55.2 102.7 46.3 167.5-1.8 12.6-9.6 25.8-13.8 39-3.6 10.8-10.8 27.6 0 41 9.6-2.5 12-15.2 15-23.6 14.4-36 39-80.5 85.8-86 33.7-3.5 52.3 17.6 59.5 46.4v10.2h-1.8c1.2 11.4-7.2 23.4-13.2 22.2 0-13.2 4.8-23 4.8-36-18-48-84.7-13.8-104 10.8-22.7 27.6-37 80.5-32.3 132.7 2.4 27.6 11.4 58.8 18.6 89 6.7 29.3 12.7 59.4 20.5 87 16.8 61.8 36 121.3 36 177.7 0 31.2-10.2 62.4-25.8 82.2-16.2 20.4-58.2 34.2-90.7 27-20.4-4.2-27.6-25.2-55.8-25.2.6 19.8 16.2 34.2 23.4 52.8 10.8 26.4 19.2 56.4 17.4 92h-8.4v-2c-40.8-9.5-107.5-16-162.7-11.3-9 .6-19.3 4.8-27 3-12-2.4-17.5-17.4-29-15-6.5 3.6-7 13.2-12 18.6-24 0-41.3-10.2-66.6-15.6-53.4-10.8-116.5-1.2-165.7 1.8-3-95 139.3-67.8 191-40.8 9-41.4-14.5-74.5-36-101-19.3-24-35.5-39.5-59.5-61-21-19.3-34.8-30-63-38-.7-12.5-5.5-21-3.7-36 12-4 33 0 37.8-12-11.4-15-27.6-15.5-41.4-30.5-26.5-29-42.7-82.3-68-105.7-13.2-12-28.2-12.6-46.2-1.8-4.8 29.4 6.6 43.2 12 63-13.2 5-27.6 6-41.4 2l-3-27c-40.2 15-33.7 106.2 34.2 85-4.2 9-7.8 18.7-12 27-18-6-43.2-4.7-63.7-8.3-1.3-31.2-1.3-64.2-17-81.7v-10.2C100.8 533 151.3 497 191 450.2c39.6 26.4 68.5 68.4 96 112.8 6.7 12 18.7 39 30.7 34.3C327.7 593 332 562 334.3 553 348 507.7 359 450 378.7 417.7c6.6-9.6 26.4-16.8 24-33.6-1.2-12-27-22.8-36-33C335 315.8 321 239 346.3 194.5c45.6-4.2 96-15 92.5-62-1.2-13-16.2-22-15.6-35.3 1.8-27.6 45.6-48 68.4-60C519.2 22.5 546.8 10.6 587 10M541 71.2c14.4.7 15-12.6 12-24-10.2 1.2-16.8 12.6-12 24m51.7-10C583 47 568 73 577 83c11.3-1 13.7-11.3 15.5-22m37.2 8.3c-13.2-4.2-24.6 7.8-22.2 25.8 15-1.8 24-12.7 22.2-25.8m1.8 49.2c15-3 27-9 29.4-25.2-16.3-4.8-31.3 6-29.5 25.2m-184.3 62c-28.8 4-46.8 19-72 27.5V237c-7.3-4.2-5-18.6-18.7-17.4-21.6 31.2 0 87 30.6 94.3 37.3 8.3 55.3-20.6 54.7-58.3 30 14.4 62 35.4 108 25.8 29.5-6 65-44.4 69.8-77 9-58.7-28.8-109.2-89-107.3-28.7.6-68.3 6.6-66.6 39 51.5-12.6 111.6 19.8 85.8 73.2 4.2-30-6-61.8-29.4-66.7-9.6-1.8-30-.6-34.2 12 15.6 0 48 9 46.2 31.3l-8.4 13.2c-7.8-1.8-12.6-6-20.4-3-5.4 9.6 4.2 13.2 4.8 22.2-22.8 10.2-35.4-12.6-49.2-22.2-11.4 33.6 20.4 54 56.4 47.4 12-7.8 27-22.8 34.2-30.6-14.4 58.8-116.5 41.4-102.6-32.4m204.7-38c15 6.7 27-4.7 32.3-13l-1.2-3.7c-14.3-5-34-1.3-31 16.7m12 31.2c7.7 9 33.5 3 37.7-7.3C694 155.4 665 159 664 174m-2 25c-3 18.7 29 17 32.5 5.5l-1.2-5.4c-7.8-3-22.8-1-31.2 0m-8.3 42.8c11.4 4.2 28.2 19.2 37.8 5.4-3-14.5-18.6-16.8-37.8-15.6v10.2m-10.2 29.4c10.2 1.2 10.8 12 22.2 12l5.4-3.5c2-12-9-23.4-27.5-20.4v12m-24 16.7c-1.8 9 12.6 17.5 22.2 20.5l7.2-4.8c1.7-18.7-26.5-28.8-29.5-15.7m-10.2 42.7c12.6-6.6.6-30-10.2-33.6-8.3 12-4.7 31.3 10.3 33.7M724 346.3c-6 12.6-6.6 36-20.4 44.4l-10.2-1.8c-4.2 12.5-19.2 14.3-27.6 22-19.2-6-32.4-17.4-48-27-8.4 14.5 7.8 34.3 13.8 39 9.6 8 33.6 18.7 56.4 14 16.2-3.7 51.6-32 60-54.8 13.2-39-6.6-83.5-41.4-84 6 18.7 16.8 28.8 17.4 48m-153.8-36c-19.2 3-9.6 39 3 41l7.2-3c-3-13.3-2.3-30-10.2-38M500 356.5c12.6-6.6 7.8-28.8 3.6-41-20.4-1-15.6 36.8-3.6 41m-44.4-34.2c3 10.2.6 25.8 10.2 28.8 11.4-2.3 7.2-26.3 1.8-32.3l-12 3.6m82.2 36c7.2-6 9.6-38-3.6-39.7-16.2 3-12.6 39 3.6 39.7m95.5-22.2c-10.8 22.3 8.4 39.7 25.8 44.5 28.3 0 48.2-42 20.5-58.2H676c4 48.6-29.5 31.8-42.7 13.8m125 53c-28.3 27.5-57 74.3-109.4 52.7-17-6.6-29-26.5-43.3-30.6-18.6-5.3-40.2 2.4-55.8 2-2 31 24.5 52.2 47.3 66.6 34.8 21.6 78.7 33 128.5 37.3-9.6 30.5-30.6 75.5-29.4 128.4 1.8 62.4 45.6 141 84 75 1.3 20.5 5 29 6.7 49.4-16 6-28.7 15-39 25.8-7-11.4-15.5-21-32.3-22.2-9.6 30 7.2 67.2 35.4 72 16.3 2.5 37.3-7 46.3-15.5C819 809.4 831 772 828 734.3c-4.3-57.7-18-117.7-32.5-174.2-15-61.2-25.2-120-35.4-171h-1.8m-272 56.2c-8.4-1.2-12.6-7.8-23.4-6.6l-7.2 20.4c-6-5.4-12.6-9-22.2-10.2-3.6 4.8-.6 16.2-6.6 18.6-1.2-5.4-7.2-6.6-13.8-6.6 1.2 16.8 9 27 18.6 35.4 8.4-4.8 7.2-19.2 17.4-22.2 3 6 9 9.6 18.6 9l8.4-15.5c8.4.6 12 5.4 21 4.8 6.6-7.8.6-29.5 4.8-41-10.8-1-10.2 9-15.6 14m37.8 56.3h-16.8l-1.8 15c-7.2-2.4-11.4-7.8-22.2-6.6l-9 18.6-15 3.6c6 10.2 13.8 18 24 24 9-3.6 9.6-15 13.8-24 3.6 3.6 10.8 4.2 18.6 3.6l8.4-15.6c2.4 4.8 10.8 4.2 16.8 4.8 1.2-7.8 0-27.6-4.8-35.4-10.2-2.4-7.2 9-12 12m36 68.5c-3-4.8-9-6-17.4-5.4l-3 18.5c-6.6-4.8-12-10.8-24-10.2-1.8 7.2-2.4 15-1.8 24l-13.8-1.8c5.4 12 9 25.2 25.8 25.8l4.8-24c7.2 5.3 13.8 16.8 25.8 12l5.4-22.2c1.2 5.5 6 8 13.2 6.7 6-7.2 1.2-27.6 0-39-12-1.8-6.6 13.7-15 15.6M423 587c10.3 38 54.7 75.2 78.7 95.6 1.8-4.2 9.6-1.8 8.4-8.4-30-32.4-60-65.4-78.5-109.3l-4.8-2c-6 5-6 15.7-3.6 24m198.3-15.6C620.7 602 637 615.2 647 635l6.7-1.7c1.8-14.5-.6-39 0-58.2-9.6-3.6-22.2-4.7-32.4-3.6M410 602.7c-27.7 9.6-21 53-24 83.5 18.5 9.6 50.3 10.2 75 16.8 13.8 4.2 33 20.4 42.6 0-36.6-28.3-70.3-59.5-93.7-100.3M594.2 640c-4.2-3-7.2-6.7-15.6-5l-1.8 18.7c-6-3.6-9.7-9.6-20.5-8.4-2.4 6-1.8 15-5.4 20.4l-10-1.8c1.7 16.7 15 21.5 24 30.5 8.3-3.6 3-21 7-29 3.7 6 14.5 11.5 24 6.7-1.7-7.8-4.7-15-1.7-18.6 7.2 1.8 7.8 10.8 20.4 8.4 4.8-16.2-7.2-28.8-10.2-42.6-10.8-.5-10.8 10.3-10.2 20.5m20.4 96c-7.8-15.6-4.2-32.4 3-44.4l-3-3.6c-27.6 2.4-35.4 58.8 0 48m6.6-17.4l5.4 8.4c12-5.4 19.2-17.4 30.6-24-10.8-16.2-34.2 1.8-36 15.6m20.4 18.6c18-4.2 28.8 7.8 46.2 7.2 3.6-33-45-42-46.3-7.2m-75-6.6c1.2 20.4 34.2 43.8 42.6 13.7-16.2 5.5-28.2-28-42.6-13.7m-140 16.8c7.2 13.2 18 22.8 34.2 27.6 4.7-7.2-3-12-3.7-18.6 6-2.4 10.8-5.4 10.2-13.8-12.6-3.6-33-2.4-40.8 4.8m81.7 3.6c-1.2 10.8 4.2 15.6 5.4 24-3 4.2-9.6 4.2-8.4 12 4.2 9.6 12.6 15.6 22.2 20.4l8.4-5.4-6.6-13.2 10.2-8.4c-.6-10.2-7.2-13.8-10.2-21 2.4-4.8 10.2-5.4 10.2-13.2-10.8-4.8-21.6 3-31.2 4.8m138.7 0c5.5 16.2 12 22.8 14 41 26.4-4.4 10.7-53-14-41m-70 17.4v12c14.3 14.5 50.3 7.8 40.7-19.2-12.6 4.8-21.6 12.6-40.8 7.2m54.5-3.6c-.6 16.2-15.6 25.8-10.2 42.6 12-.6 15-10.2 24-13.8.6-12.6.6-25.2-8.4-28.8h-5.5M486.2 826c-4.2 30 19.8 58.3 19.2 96l8.4 3.2c24-27 71.4-13.2 101 0 7 6 12 14.4 22 8.4-14.3-60.7-78-101-150.6-107.5" fill="none"/>
</svg>
