<svg xmlns="http://www.w3.org/2000/svg" viewBox="0 0 1000 1000">
  <path clip-rule="evenodd" stroke="red" stroke-miterlimit="10" d="M10 492.2c3-11 4.2-23.8 6.2-35.2 13 9.3 22.8 22.8 47 21.7-7.7-40.3-15.5-80.7-11.8-133.5 1-18 7.8-34.7 5.7-50.7-2-19.7-19-37.8-21-61-3.2-30.7 7-53 19.6-78.3 41 9.3 59.5 41 95.7 55 19.7-28.6 30.6-66.3 62.7-82.4 19.7 8.8 33 42.5 54.8 47 18 3.7 58.5-9.7 80.3-16 126.4-33 302.4-7.8 415.8 29.5 46 15 95.3 37.3 123.2 66.8 19.7 20.8 25.3 53 69 48.7 19-23.8-2.2-55.4-27.6-50.7 25.4-26 58.5 5.7 60.6 33v4.3h-2c-5.7 30-24.4 47-52.8 55 7.2 103.4-7.8 191.4-43 256.7-33.6 61.6-82.3 113.4-100 192-4 18.8.6 46.2-4 68.4-10.4 8.3-29.6-.5-50.8 2-7.8-6 6.7-22.7-4.2-25.2-16 4.7-17 24.3-31 31-9.4-2.5-30.6 0-41.5 2.2h-2c-2.7-8.8 3-21.7 2-35.2h-39.3l-3.7-19.7c-10.8 0-9.3 12-17.6 14-11.3-2-33.5 1.5-49 2C565 818 574 776 555 761 473 750.2 432.5 798.8 414 859c-13.5-1-21.2 3.5-33 3.5-1-8.8-3.2-16.5-2.2-27.4-13.4 4.8-17.6 22.3-35.2 27.5-16 5.2-39.4 2.6-59-1.5 3-13 17.6-14.5 14-33.6-44-1-92.7 2.6-133-2 13.4-22.3 46-43 31-82.4-36.2-17-67.8-39-82.3-78.2-25.3-16.6-58-25.4-66.7-58.5 2.6-10.4 16-8.8 16-21.8C34 565.8 9.6 551.8 10 505.7v-13.5m290.5-176.5C302.5 253 259 193 226 161h-6.3l-3.7 4c-16.5 30.6-58 65.3-43 107.7 16-27.4 25-62.6 53-78.6 34 39 59.4 88.6 50.6 165.2 17.6-7.3 22.8-22.8 24-43.5m66-137.2c.7 19.7 22.4 17.6 39.5 19.7 17.2 20.2 77.2 33 92.2 2-9.8-.4-18 .6-25.3 2.2-1.7-5.2 8.2-8.3 2-12-8 3.8-18.2 2.2-24 0 7.3-3.5 16.6-4.6 17.7-13.3l-19.7-4c-.6-4.8 9.3 1 6.2-5.8-35-5.8-59.5 6.6-88.5 11.3m163-9.8v6.2c10.5 25.2 62.2 31.5 78.3 5.6-15.6-13.5-52.3-15.5-78.2-12M69 180.7c-9.3 14-14.5 52.3-5.7 70.4 10.3-12.4 4.7-41 15.5-52.8 14 2.6 25 23.3 39.4 14-7.8-19.2-28-26.5-49.2-31.6M406 208c-12.3-4.6-34-5.7-48.6-12C341 189.5 331 171 311.8 185c-1.5 15 14.5 23.8 23.8 31 31.6 25.4 57 55 90 76.7 9-9.8 10.4-23.8 17.7-33.6 9.8-13 27.5-17.2 35.2-31.2C451 224 431 217.3 406 208m266.7-7.8c-16.6 4.2-5.7 25-14 35.2 21.2 15.5 46 8.8 80.8 4.2 19.2-2.6 34.7-11 37.2-23.8-32-15-67.3-27-109.7-31-5.7 8.2 1.5 10.8 5.7 15.4m-55 19.7c-4.6-1-4-8-11.8-6.3l-3.7 12c-4.2 0-2.6-5.3-7.8-3.8-3.6 5.6-8.8 9.2-8.3 19l-7.8-5.6-7.8 13.5c-2.6-6.3-.5-17.2-4-23.4-9.4 1-7.3 13.4-13.6 17.6-3.6-2.6.5-13.4-5.7-13.4l-7.8 3.6c.6-6.2-3.6-6.7-2-13.5-7.8-2-8.8 3-12 5.6-3.6-3.7 0-14.5-7.7-13.5-24.8 38 18 65.3 15.6 105.7 7.8 9.3 14.5 19.7 23.8 27.5 30.6-6.2 26-34.7 38.8-60.6 11-21.7 31-27.4 33.6-49.2 1-11-.5-19.7-4.2-29.5h-5.7c1.2 6-3.5 6.6-2 14m-294 74.5c5.7-8.8-1-19.2 0-29.5 6.7-3.6 17.6-3.6 25.4-6.2-10.2-23.8-26.8-42-56.4-46.6 3.7 25.8 11 65.7 31 82.3m-235-49.2c7.3-4.2 13.6-8.8 17.7-15.5-3.7-5.2-5.7-11.4-15.6-10-5 7.3-3.5 15.7-2 25.5m709.2 12c4 3.5 16-.6 17.5 5.6v19.6c18-3.7 30-13.5 39.3-25.4-7.6-23.3-53.2-34.7-57 0m-579.7-17.6c-10.2 24.3-35.6 51.7-23.7 86 16.6-8.4 14-35.8 29.5-45 4.7 17 9.3 33.5 17.6 47 14-24.8-1.6-67.8-12-88h-11.3m409.6 97.8c56.5 6.7 63.7-83.3 17.6-97.8-10.4 15-31 19.7-33 43 5.6 1 22-1.6 23.2 9.8-43-4.7-37.3 41.4-7.8 45M465 313.6c16.2 2.6 31.2-10.4 31.2-29-2.6-6.7-11.3-7.2-13.4-14L504 263l-3.7-21.8c-49.2-12.5-73 67.8-35.2 72.4m215.4-56.4c1.6 17.6 7.8 31 7.8 50.7 33-12.5 60-31.7 80.3-57-30.6-6.7-61.2 2.5-88 6.2m-580 235c3.8-27.4-14.4-59-18-90-5.7-52.3 10.8-94.3 28-129.5h-4.2c-59.5 23.8-49.2 192-5.7 219.5M857 272.7l-6.2 4.2C768 332.2 681.6 406.2 600.3 465c-10.4 7-31 15.4-25.4 33 15.5-2 27.4-14.5 38.7-23.3 73-55.4 146.5-111.8 218-166.7 10.4-8.3 31-16.6 29-35.2H857m-151.2 52.7c7.2 1.6 19.7-2.6 23.8 2-4.2 8-10.4 19.3-6.2 29.6 27-9.2 46.6-25.8 61-47-5.6-3.6-16.5-1.6-21.6-6.2.5-9.3 10.3-18.6 4-29-24.2 13-52.2 22.3-61 50.7m-327.2-25.3c-7.2 4.2-19.2 4.2-29.5 5.7 6.3 26.3 32.2 33.5 49.3 49 9.3-6-1-26.3 2-31.5 8.4 2.6 18.7 2.6 29.6 2-10-23.8-26-41-51.4-48.6V300m-64.7 12c34.6 35 76.5 65 113.8 97.8 28 24.3 57.5 45 86 68.8 9.2 7.2 19.6 20.2 33.5 17-10.4-22.2-34.2-36.2-53.4-50.7-19.8-15.4-39-32-58.6-47-40-30.6-75.6-66.3-117.5-94.3h-4.3v8.4m162.8 11.5c-2 21.7 22.2 32.6 37.3 45 12.4 11 34.2 34.7 51.2 33.6 12-1 27.4-18 37.3-25.7 13-9.3 25.3-18 29-33-16.6-5.8-21.2-18.2-36.8-13.6-13 3.7-23.3 29.5-33.6 29.5-5.8-.6-17.7-19.2-21.3-26C532 321.5 531 309 520 304c-16 5.2-24 18.6-43.5 19.7m392 41.4c16.5-8.4 8.7-43.6 6-61.2-19 1.5-18.6 52.3-6 61m-37 19.7c17.7-3 19.8-43 11.5-59-12 10.4-15 40-11.4 59m-523.4 10c8.8-10.4 12-47.2 3.6-61.2-14.5 7.3-15.5 49.7-3.6 61m147-23.8l-16 4.2c8.3 19.2 28 37.3 47 39.3l4.3-18c9.8 0 21.2 1.5 23.3-5.8-15.6-22.2-35.2-40.3-60.6-52.8-5.2 10 2.5 21.8 2 33m157 19.8c6 5.2 19 4.2 23.2 12-1.5 7-2.6 14 2 19.6 18.2-12 35.3-25 50.8-39.4-8.3-8.3-19.2-22.2-9.8-37.2-26.4 11-49.7 24.8-66.3 45M333.7 351c-2 18.5-14.5 57 4.2 66.7 11.4-13 6.7-43 11.4-62.6-4.2-2-7.8-5-15.6-4M802 405.7c14.6-1.6 16.7-44 5.8-52.8-8.3 11.4-5.2 33.6-5.7 52.8m-29.4 23.8c17-4.2 20.2-42 12-59-18.2 4.6-15 39.3-12 59m-406-2c7.3-11.5 9.4-40 0-51.3-26.3 1.5-13.3 45 0 51.2m17.7 23.3c16.6-1.6 21.7-58.5 0-56.5-.5 19.2-7.8 39.4 0 56.5m356.7 10c27.4 0 18-52 9.8-66.4-17.6 12-7.2 39.8-9.8 66.3m-207.6-23.4c-6.2-2.6-20.2-4.2-21.2 3.6 14 29.4 67.8 59 84 11.8l-13.6-9.8c-1.5-10 2.6-14 2-23.3-18.5 6.2-31 5.2-45-4.2-5.7 8 1 18.7-6.2 21.8m180.2 47.2c25.4-4.2 17-47 14-69-27 1.7-12.5 47.2-14 69m-301.8-12c6.7-10.8 10.3-40.8 0-50.6h-3.6c-1.6 13.8-6.8 42.2 3.6 50.6m-250.6-2c12-4.8 20.2-14 29.5-21.3 15.5-7.2 42.5-3 50.7-17.6-28.4-11.4-81.2 8.2-80.2 38.8m519.2 37.3c23.8-5.2 20.7-47 17.6-72.5-24.8 7.8-17.6 44-17.6 72.5M430 494.3c15-3 8.2-44 1.4-55-5.7 12-4.6 40.5-1.5 55m25.2 11.4c11-9.8 9.8-44-2-52.8H449c0 13.8-9.3 48 6.2 52.7m200 33.6c21.6-9.3 13.8-47 15.4-76.6-23.3 7.3-19.2 53.8-15.5 76.6m-484-64.7c.6 6.7 5.8 8.3 10 12 3-15.2 40.8 4 40.8-14-14.5-10-38.8-9-50.7 2M302 514c12-11.4 15-31 21.7-47-27-9.4-44.5 34-21.7 47m184.3 29c6.2-14.6 4.7-37.3 6.2-56.5-4.7-3-9.8-5.2-17.6-4.2 3.5 20.3-10 58 11.3 60.6m141.3 12c16-10 4.2-48.2 7.8-70.5-24.3 4.6-19.7 55.4-7.8 70.4m-304-33.3c17.2 1.6 32.7-14.5 57-12-1-34-63.6-19.6-57 12M737.5 545c-5.7-15.5-5.7-37.2-5.7-52.8-27.5-1-32.6 62 5.7 52.8m-444.7-13.5c-5.2-14.5-18-21.2-21.7-37.2-35.8 6.7 4.6 59 21.7 37.2m468 3.7c14-11.4 32.6-18 45-31-18-25.5-54.3 5-45 31M508 568.8c16.6-9.8 8.8-43.5 12-66.8-26.5-16.5-15.6 53.4-12 66.8M49.4 549.2c10.3-13.5-5.2-30-7.8-43.5H26c-.4 22.8 11 33.6 23.4 43.5m27.4-10c5.2-10.8-1-28-15.5-25.3 2.6 11 3.6 23.8 15.5 25.3M596 517.6c-18 11.3-9.2 45-9.7 70.4 6.7 5.7 6.2-8.3 16-5.7 0-25.4 6.7-48-6.2-64.7m-54.8 76.6c6.7-19.2 6.7-44.5 7.8-69-4.7-2-9.3-4.6-17.6-3.6 4 23.4-5.2 60.2 9.8 72.6M784.5 543c12.4 6.6 33 4.6 45 11.8 23.8-28-38.3-37.2-45-12m-437-1.4c22.4 4.6 31.2 23.3 41 41 33.6-23.4-18-75.2-41-41M559 606c27.5-3 6.7-52.2 12-70.8h-10c-2 22.2-2 46-2 71m-411.6-29.6c-12 5.7-35.7-1-36.8 15.6 11 3 26.4 2 39 4 7.7 17.7 19 32.2 37 39 1.7-17-6.6-24.4-15.4-31-11-23 6.2-39 7.8-61.2-5.7 0-8.3-3.6-13.5-3.6-6.2 12-8.2 28.4-18 37.2m106-27.4c-2.6 33 53.8 39.8 52.8 3.6-19 1-39.2-5.7-52.7-3.6m474.3 17.6c-9.3-8.3-21.2-14-35.2-17.6-9 22.2 23.8 35.7 35.2 17.6m-386.2 54.8c36.7 3.7 38.8-59 2-57 1 14.6 3.6 39-2 57m470.5 3.7c25.8-7.8 25.3-58-8-56.5-2 15.5 10 34.2 8 56.5M280.7 602c4.2 24.8 34.2 13 45 2 .5-7.7 1-20.6-2-29.4-16.6 7.2-21.2 25.8-43 27.4m411.5-2c9.8 24.2 51.8 14 57-10-15.6-1-41 4.7-57 10m78.2-7.8c-2 18-14.5 26-17.6 43 24.8 8.3 38.8-20.2 27.4-43h-10m-676 47c26.4 11 41.4 33 57 55 17.5 12.3 35 16.5 60.5 21 41.8 8.4 69.8 30.7 94 57 6.8-7.7 0-20-4-25.3-23-29-94.3-42.5-135.2-53-20.7-24.7-32.6-59-72.5-64.6v9.8m551 82.4c12 8.3 56 23.8 66.7 23.3 35.7-.6 74-31.7 76-66.3h-17.5l-3.7 11.4c-4-.5-3.6-5-9.8-3.6-2.6 5.2-3 13-7.8 15.6-4.7-4.7-2.6-16-14-14-4.7 2 0 13.4-7.8 12l-4.2-13.6c-7.8 4.2-9.3 14-13.4 21.2-2-6.2-3.7-13.5-6.2-19.7-11.4-2.2-7.2 12.3-15.6 14-.5-7.3-4.7-11.5-7.8-15.7-7.2-2-3 7.2-9.8 5.7l-5.7-7.8c-5.2 2-4.7 9.8-9.8 12-.7-9-4.3-14.6-10-17.7-6 6.7-9.8.5-17.5 0 1.2 14.6 3.8 33.2 17.8 43m-147-37.2c-11.5-1-10 11-17.7 13.5.5-6.2-2.6-9.3-7.8-9.8-4.7 5.2-3.7 15.5-12 16l-4-9.8c-6.8 2-4.8 13-11.5 15.6-4.2-3-1-13.5-7.8-13.5-6.2 3.7-5.2 14.5-9.8 19.2-6.2-4.2-6.7-14.5-14-17.6-6.2 2.5-3 14-9.8 16-1.2-6.3-.6-14-8-14-5.6 1.5-3.5 10.8-9.7 12-2.6-2.7-2-8.4-2-14-4.3 0-5.8 3.5-11.5 2-3.7-5.2-4.7-14-12-15.6l-7.7 12c-4-4.3-4-13-14-12l-5.6 7.8c-2-6.7-5.2-11.3-13.4-12-6.6 87 179.3 105 178.2 4M610 754.8v6.2c9.8 14 30.6 22.7 43 35 5.7 5.8 8.3 19.8 19.7 13.5 2-32-31.6-56-62.7-54.8" fill="none"/>
</svg>
