<svg xmlns="http://www.w3.org/2000/svg" viewBox="0 0 1000 1000">
  <path clip-rule="evenodd" stroke="gold" stroke-miterlimit="10" d="M370.8 52h21.4c26.4 5.5 63 .4 82 13.4-6 63.6-36 113-43.2 169 48.4-15.3 92.8-43.5 147.4-59.2 16.3-4.5 35-7.3 53-11.8 35-8.4 78.2-21.4 131-17.4 52 4 100.3 16.3 151 25.3-19.2 54-53.5 96.8-86 137.4-24.3 31-51.3 60.8-80.6 88.4-9 8.6-26 12.5-27.6 27.7 42.8 15.8 93.5 19 131.7 46.7 12.8 9.6 40.4 41 50.5 56.8 14.7 22 29.3 51.2 35.5 71 18.6 58.4-23.6 105.7-29.3 162.6 45.6 4.5 50-49.5 58.5-88.4 14 8.4 22 22.5 23.6 43.3v11.8c-4 29.3-14.7 72.6-35.4 87.8-7.3 5.7-41.7 19-54.6 22-11.3 1.7-23-1.7-35.5 1.7-23 31-36.6 72-62.5 100.2-71.5 4-150.3 1-219.5 8h-11.8c-63-13-141.3-10.8-210-18 1.7-12 8.5-19.2 10.2-31-110.3-5.7-228-4-339.4-8 7.3-69.8 116-38.8 149.2-82.8-27-2.2-57-8-84.5-15.8-38.8-10.7-80-17-86-58.5v-72.5c10-53 14-126.7 42.7-168.3 14-20.8 42.3-32.6 47.3-55.2 5-23.6-6.2-41.7-8-60.8-13.3-131 34-246 129.6-289.8 13-6.2 31-10 46.7-15.8 30-10 59.2-19.7 102.5-19.7m-18 100c6.2 1.2 17-2.7 19.7 1.8-9 6.7-18.6 13-23.6 23.6 7.8 6.2 26.3-1.7 29.2 0-9.5 10.7-23 17-27 33.2 2.8 2.8 9.6 1.7 15.8 2.2-6.2 10-18.6 14-23.6 25.3l1.7 8 14 1.7c-10.6 6.7-19.6 14.6-25.8 26 .5 4.4 6.8 3.3 6.2 9.5-9 5-17.4 10-19.7 21.4 68-3.4 79.3-81 111.5-127.2 6.7-29.8 15.8-57.4 15.8-94-44-4-82.8-9-131.2-4-43.3 4-72 20.3-100.2 41.2-30 22-57 51.2-74.3 88.4-14.6 29.8-34.3 80 4 82.2 6.2-16.3-4-43.3 0-56.8 5.6 12.4 5.6 31 19.7 35.5 8-14.7 1.7-44 8-61 4 7.4 2.2 21.5 11.7 23.2 8-8.4 3.4-30.4 13.5-37.2.6 6.8 1.7 13 9.6 11.8 8.4-3.4 5-18.6 11.8-23.6.6 5.6 3.4 8.5 10 8 10.8-14 16.5-32.7 27.2-46.8l8 8c12.8-12 20.7-28.3 33.7-39.5 0 9.5-1.7 21.3 8 21.3 14-10.7 27-32.6 38.7-38.8-5 13-11.8 24.2-13.6 41 32.7-6.6 46.7-32 78.2-39.3-17.6 19.5-43.5 30.7-57 55m-74.3 33c-33.8 22.6-63 55.3-78.8 94 20.3-3.3 29.8-24.7 43.3-37 14-13 30-24.8 45-31.5 4 46-25.2 75-29.2 120 38.8-24.3 73.7-96.4 60.8-159.4-14.7 1-30.4 6.7-41 14M731 244c18 7.8 31-8.5 47.4-13.6 27-9 59-18.6 82-37.2-15-8.4-39.8-8.4-60.7-11.8v-8c-6.8-3.3-1 6.8-5.6 5.7-109.7-16.8-203 12-272.4 47.4C509.3 249 490 264 490 299c21.5-8.4 33.3-26 50.8-37 0 6-4 8.3-3.4 15 25.3-5 35-25.8 54.6-37-.5 11.3-11.2 12.4-9.5 26 27-6.8 37.7-28.8 58.5-41.8-5.6 9.6-11.8 18-13.5 31.5 32-3.4 39.4-32.6 70.4-37-5.7 7.2-13.6 12.3-16 23.5 28.3 7.3 49.6-23 76.6-29.3-6.7 12.3-23.6 15-27.5 31m59.2-9.7c-20.2 10-44 18-51.2 35.5 33.2 9 81 3.4 100.2-14 5-18 21.4-26 23.6-46.8-22-2.8-49 13.5-72.6 25.3M404 341.8c22.5-10.7 33.8-33.8 50.7-50.7v16C481 296 489 266.3 498 238c-50 14.7-92.8 46.8-94 103.6m304-35c8.4 1.2 22-2.7 27 1.8-17 11.2-45 10.7-54.6 29.3 9 2.7 18 5.5 25.3 10-18 5.6-40.6 6.7-53 17.4-4.4 13 14 2.8 13.6 11.8-19.7.6-37 3.4-50.7 10 .6 8.6 12.4 6.8 15.8 13.6-9.6 9.6-38.8-.6-43.4 13.5 2.8 8.4 18.6 4 19.7 14-20.2 3.5-40.5 7.4-64.7 8l-2.3 11.2c-17 4-36 5.7-53 10-1 10.8 10.8 9.7 11.8 17.6-14 3-52.3-2.7-58.6 14-14 3-33.8 0-47.4 4 .6 13-12.3 11.8-21.4 15.2-1.7 10 4 11.8 5.6 18 28.7-.6 65.3-5 88.4-10 69.3-14.2 120.4-39 178.5-76 43.3-28.3 89-61 113.7-88.5l6.2-14c16.3-20.3 42.8-28.2 46.7-54.7l-4-4c-37.4 5.4-75.7 9.3-99.3 28m-337.2 52.8c21.4-15.8 32.7-41.7 41-71-30.3 5.2-55 41.2-41 71m98-31.5c-13.5 5.6-30.4 11.2-37.7 23.6 26.5-3 54.7-15.3 86.8-21.5 32-6.8 67-9 95.7-15.8 11.8-2.8 29.3-6.7 33.8-19.7-63.7-6.7-129 11.4-178.5 33.3M139.5 340c-3.4-14.5-2.3-33-18-35.4-8.5 14.7-.6 36 18 35.5m374.3 58.7c-32.6 17.4-69.8 21.4-96.3 49 50.7 1 87.3-28.7 131.2-41 32.6-32.7 85-45.7 106.4-90.2-63 0-94 56.8-141.2 82.2m-243.2-41c23.6-4.6 59-13.6 66.5-41.2-26.4 8-66.4 13-66.4 41m50.7 51.3c25.3-13.5 32.6-45 37.7-78.2-33.8 5-37 40-37.7 78.2m-184-25.3c13.4-10.7.4-37.7-13.6-39.4h-4c0 18.7 5.7 32.2 17.5 39.5m96.3 15.2c19 5.6 43.3-.6 42.8-21.4-20.3 0-38.3 12.4-42.8 21.4m46.7 31.5c5-1.7 12.4-2.3 19.7-1.7 4-13 7.2-25.3 7.8-41-18.6-1.2-32 19-27.6 42.7m-148.6-1.7c24.7-3.4 14-41.7-10-39.4 3.8 12.5.4 32.8 10 39.5m80-4c6.7 17.5 21.3 7.4 35.4 4v-10c-12.4-1.8-28.7-3.5-35.5 6M298.2 597c-11.3-54.6-86-72.6-131.7-41-19 13.4-55.7 55.6-38.8 82 19.2-21.8 37.7-65.7 74.3-72.5 34.3-5.7 68 13.5 74.3 39.4 10.7 44-15.8 73.2-38.8 86-13.5 8-30.4 5.2-39.4 18 64.2 12.5 113.2-45.5 100.2-112m172.3 25.4c-5.6 26.6-18.6 45-17.5 63.2-15.2 17.4-23.6 41.7-27.6 70.4 18.6-2.8 33.8-9.6 47.3-17.5 0-5.5-4.5-6-4-11.7 5.6.6 5.6-4.5 12-4l-2.4-11.7c6.2-6.2 20.8-4 19.7-17.4l-8-4c2.4-7.8 14.8-6 16-15.7l-8-8c5-3.3 14.7-2.2 15.8-9.5.6-9-11.8-4.5-11.8-11.8 5.6-2.3 8.4-7.3 15.8-8 3.4-12.3-7.3-11-10-18l7.8-1.6c-1-7.3-4-13-8-17.4 5.2-1.7 11.3-2.3 12-8 1-6-5.8-4.4-4-11.7 2.7-6.7 12.3-6.2 10-17.4h-12c.7-3.8 5.8-3.8 4-10-47.7-4.7-39.8 34.7-47 70m227.3 10.3c-8.5-5.6-14-21.4-29.4-14-4 39.3 17 53.4 33.2 72.5l6.2-1.7c15.2-11.2 6.2-43.8-6.2-51 6.2 1.6 7.3-1.8 11.8-1.8 1.2-25.3-1-47.3-5.6-67l-8-1.7c-19.6 16.4-12.3 44-2 64.8m35.3-64.8c-20.3.6-5.7 35-10 54.6 23 4 32.5-55 10-54.5M367 604.7c-5.7 41-13 65.8-27.7 96.3-8.4 16.3-15.8 35.5-22 42.8-12.8 18.6-28.6 18.6-23 41.7 18-5.7 43.4-3.4 62.5-8 .6-11.2-8.4-12.8-11.8-19.6 5.6-3 12.3-4.6 19.7-6.3 2.3-8-4-7.3-4-13.5l16-4c3.8-6.6-.7-10.6-4-15.7 7.2-2.2 14.6-5 21.3-8 2.8-8.3-13-9-8-13.4 6.3 0 12-3.3 18-7.8.6-9-8.3-9-10-15.8l10-1.7c-.4-6.2-4.4-9-6-14 4.4-4.5 13-4 11.7-13.5l-9.5-8c9.5 1.8 11.2-3.8 17.4-6 0-11.3-14.6-7.4-19.7-13.6.5-6.7 6.6-8 11.7-9.6 1.2-8-4-9.6-5.6-14 8.5-4 18.7-6.3 23.7-13.6-29.3-7.3-57.5-2.3-60.8 25.3M786 626c10 3.5 23.6-3.8 33.2-7.8V589c-23 .5-36.5 16.8-33.2 37M597.7 615c3.4 10 19 15.2 33.8 13.5 11.2-34.3-42.8-47.2-33.8-13.5m125.5 68c23-3.8 42.8-32 33.8-64.6-26 7.3-30.4 35-33.8 64.7m-572.5 0c30.4 3.8 53.5-19.8 33.8-43-27.6-9.4-41.7 17.6-33.8 43m604-8c19.7 23.2 65.8 9 67-21.3-24.8-3-58.5-1.7-67 21.4m-127.2-15c-3.4 6 1 8.4 0 17.4 15.2 6.8 24.7 19.7 45 21.4 2.3-22.6-14.6-42.3-45-39m192 23c14 3 47.8 17.5 56.8 0-8.5-16.2-52.4-29-56.8 0m-255 12c12.4 6.2 42.2 5.6 55.2 0 1.7-14.6-8.4-18-11.8-27-24.4-1.2-40.2 6.7-43.5 27M806 738c-3-27-17.5-42.7-49-41-1.7 31 25.3 40.5 49 41m13.5-37c-1.2 16.3 4 26 11.8 33.2 15.8-8.4 35.5-13 47.3-25.3-8-13.7-42.3-10.3-59-8m-206 45c30.3 3.4 62.4-8.4 72.5-31.5-26.4-25.4-71 1-72.5 31.5M555 714.5c6.7 15.8 23 21.4 37 29.3 13.6-5.6 20.3-17.5 29.3-27-10.7-13.6-51.2-9-66.4-2.3m174.4 0c-4 13-13 19.7-10 39.4 10.6 14 24 25.2 37.6 37 18-27 2.2-73-27.6-76.5m-19.7 4l-19.7 6c-10 12.5-20.3 44-9.6 64.8 21.4-9.5 42.2-46 29.3-71M45 730.4c-4.6 7.8-5 20.7 4 23.5 16.7-1 13.3-32-4-23.6m576.3 72.6l27.5-2.3c8.4-5 5.6-21.4 9.6-31-18.5-2.7-42 5.8-37 33.3m170.5-33.2c-5.7 16.3 4.4 33.2 19.6 35l8-5.7c1-18.7-13-32.7-27.7-29.4m-86.3 60.8c2.8-14.6 2.8-32.6 4-49-28 0-34.4 45.7-4 49m17.5-43.3c-8 15.3-2.8 46.2 2.3 61 16.3-9.7 24.2-26.6 29.3-47.4-8-6.8-14.2-15.2-31.6-13.5m-246.6 8c-12.4 6.8-33.2 44-39.4 54.6 15.2 1 29.8-13.5 43.4-23 10.7-8.5 28-16 27-30-10-7.3-23-6.2-31-1.6m113.8 33.2c-19.7 6.2-55.8 9.6-68.7 23.7 20.3 8.3 51.2-1.2 76-4 15.8-1.7 33.2 4 41.7-8-8-12.4-29.4-11.3-49-11.8" fill="none"/>
</svg>
