<svg xmlns="http://www.w3.org/2000/svg" viewBox="0 0 1000 1000">
  <path clip-rule="evenodd" stroke="gold" stroke-miterlimit="10" d="M878.2 82.6c-31-1.8-53.3 13.7-80.2 24.8-9.8-9.4-10-24.2-13.4-34.4-13.2-40.4-36.8-62.4-86-63h-23c-46.3 16-64 60.8-63 124-23 10.8-45.3 10.4-65 19.2-55 24.6-72 96-110.7 137.5-25.2-4.8-54-7.5-82.2-11.5-27.4-3.8-59.4-14-78.3-5.7 2.7 10.7 23.2 12.3 36.3 13.4 42.8 3.6 104.3-.8 116.6 26.6-22.5 12-50.2.4-76.4-3.8-27.7-4.4-57.4-7.3-86-3.8 2 15.4 22.5 11.8 34.4 13.4 29.4 4 57 7.5 84 11.5 11.3 1.6 31 1.8 32.5 13.3-3 14-24.8 5-34.5 3.8-36-4.5-84.8-10.7-118.4-7.5 1.4 11.4 20.4 12 30.7 13.4 42 5.8 94.2 3.5 122.3 21-5.3 18.2-25.8 21.3-36.3 34.3 12.8 42 63.4 46 99.3 65 16.6 43 6.5 107.5 7.6 162.3-60.2 36.4-142.2 41-183.3 91.7-28.4 35-36 73.4-38.2 135.6-54.6 6-137.2 7.5-189-2-13.7-14.7-17.4-43-19.2-70.7-4.2-68.7-.6-158.8 3.8-229.2 1.2-20 3.3-57 15.2-65 26.5-17.2 108.3 4.2 141.4 0 29.3 21.4 17.5 99 3.8 128-16.4 12.6-57.6 12.3-76.4 2-16.5-47 6.6-73.8 42-76.4-14-8.3-47-4.2-57.3 3.8 0 25.8-13.4 72.6 0 93.6 15.7 24.7 105.8 10.2 116.5-3.8 12.2-16 7-65.8 5.7-89.8-1.4-28.8-7-45.3-5.7-72.6-23.2-14-64-13.2-101.2-15.3-39.2-2.2-80.4-5.4-107 7.6C28 569 27.4 674.6 22.4 776v23c10 35.8 3.3 75.7 21 99.2 20.5 27.2 79.8 19.4 122.3 21 51.6 2 101.8.7 139.4 11.5 4.7 24.4-9.6 29.8-11.4 47.8 138 10 298.6-3 431.8 11.4h17.3l9.5-2c6.4-10-6.8-22-3.8-40 28.3-12 81.8-4.2 116.6-4 4.7-59.8-59.2-75.6-118.4-66.8C748 857.2 758 840 762 820c2-11.2-1-23.3 2-34.5 4-16 19.2-32 30.4-45.8 11.8-14.6 26.3-32.7 40.2-36.3 22.4-5.8 43 2.5 63-2 27.2-5.8 34.8-28.3 55.5-45.7-28.5-8.3-63-11-82-28.7 14.7-28.6 40.7-45.8 57.3-72.6 6.8-31.3 3-65.4-5.7-95.5-30 14-40.2 47.6-78.4 53.4 1-69.3-20.2-122.2-30.6-175.7 40.5-13.4 83.8-10 114.6-30.6 24-16 44.2-50.3 47.8-85.8h2V203c-4-62.3-50.3-117.6-99.8-120.4zM479 447.6c-8.6.2-8-8.7-7.6-17.3l9.5 3.8-2 13.5zm7.6-128c-9 1.5-18.8 11-26.8 7.6 3.5-16.8 14-21 11.5-40h3.8c12.8 1.8 12 17.4 11.6 32.3zM370 879c14 1.5 34.3-3.6 42 3.8-3.6 16.3-42.5 15.3-42-3.8zm19.2 63c-9.6-16.5 12-40 32.5-32.4-5 16.7-14 29.3-32.5 32.5zm-7.6-112.6c20.7-4.2 40 9.7 40 32.4-22-2.2-35.8-12.5-40-32.4zm59.2 13.3c-20-4.3-25-23.6-24.8-47.8 18.2 4.8 27.7 28 24.8 47.7zm393.5-724c-2 17.5-6.4 33-21 38-3.7-6.4-3.3-17-5.8-24.7 9.6-3.8 10.8-16 26.8-13.4zM798 136l7.6 2c-2.4 18.7-6.8 35.2-21 42l-3.8-7.6c-6.5 5.5-11.3 12.8-17 19-5-27 21.8-39 34.2-55.3zm-72.6 40.2c3.3-24 4-50.7 30.6-51.6 4.3 24.3-12.6 43.4-30.6 51.6zM758 363.4c-4.5 38.3-28.8 56.6-61.3 67 13.2-27 40-40.3 53.6-67h7.6zM725.3 138C717 120.2 737 102.3 754 98c-2 13.4-13.3 33.5-28.6 40zm21-84c8.5 28-11.6 43-28.7 51.6-3.6-23 12-42.7 28.7-51.6zm-66.8-25c18.3-5.3 38 .6 49.6 7.7-2 20.3-7.2 37.4-24.8 42V48c-11.5 5.8-7 27.5-13.4 38.3-12.2-9.7-14-38.7-11.4-57.2zm19 103.3l6 15.3c-7.3 7.6-20 2-27-2-3-14.3 9.2-13.8 21-13.3zm-23 363c14.3 2.7 10-13 17.3-17.3l9.5 7.6c2-3.7-1.8-14.6 9.5-13.4 6.2-1.7 2.7 6.2 5.7 7.6l4-11.4c7-1 8.8 3.7 13.2 5.7l1.8-13.3h11.4c-.3 6 5 6.4 3.8 13.4 5-6-3-14 3.8-19 11.5.6 11.6 12.5 17 19 5.2-10-1.2-31.8 9.7-36.2 6.8-3 1 6.5 5.7 5.7 4.4-5.8-.6-21 5.7-24.8l5.7 2c4.3 15.4 4 35.3 3.8 55.3-27 29-68.8 43.3-116.5 51.6-11.6-3-14-20.4-11.3-32.4zm-9.4-44h7.6c1.5 7.4-9 7.4-7.6 0zM651 40.6c18.2 4.7 24.4 31.6 19 53.5-13.5-2.3-34.7-33.3-19-53.4zM633.7 73h3.8c11.5 7 12 25 17.2 38.3-19.6 6.6-27.3-19-21-38.2zm-9.5 46c14-.7 26.8 14 17 24.7-12.6-1.2-19-8.8-17-24.8zm9.5 340c25.8 15.6 13.8 69.8 3.8 93.5l-9.6 5.8c-22-17.5-33-46-42-76.4 11.3-12.4 30.5-16.7 47.7-23zm-30.5 110.7c-2.8 12.2-17.6 12.4-21 23-17.5-33.6-25.7-76.3-40.2-112.8l3.8-6c24-1 25.2 14.6 34.4 36.4 9.7 23 26.5 43.2 23 59.3zM595.5 373c-2.8 10-9.8 12.5-21 17.2-5-8.6-3-20.6 0-30.6-4.5-8.3-18.6-7-28.7-9.6 11.7-35 59.4-11.7 49.7 23zm-36.3 74.5c-19.4-3.2-39.6-21.2-44-45.8 26.4 2.4 42.8 24.6 44 45.8zm-45.8 2c-12.5.8-13-10-15.3-19.2 12-.4 15.7 7.3 15.4 19zm26.7 64.8c11.3 27.8 20.7 63 15.4 99.4-13.4 10-29.3 17.8-49.6 21-6-48.7-2-117.8-7.7-160.5 26-12 34 20 42 40zm0 305.7c8.2 18-18.4 33.4-40 34.4-6.3-24 21-29.7 40-34.4zm-87.7 139.4c-14.8-4.7-11-38-2-45.8l5.8 2c3 11.7 4.5 37-3.7 43.8zm13.3-112.7c-8.4-16.7-3.4-48 11.5-53.5 15.5 11 6 51.3-11.4 53.5zM502 929c-16.3-.4-23.5-9.7-26.8-23 12.2-3 28.8 5.3 26.7 23zm-5.8-44v-9.6c19-6.8 35.5 5 45.8 13.4-6.7 20-36.2 2.6-45.8-3.8zm91.7 26.7c24.2-83.2-14.4-151.8-78.5-170V734c79.2 3 112.3 78.4 93.7 160.5 32.8 12 85.6-7.6 88 34.4-9.7.6-19-3.8-27-9.7-24.5-3.4-56.7.8-76.3-7.6zm74.4-59.2c.3-12.2 31.8-35.5 32.4-11.5-10.4 3.3-23.6 18.5-32.4 11.5zm25 118.4l1.7-11.6 9.7 5.8zm-7.8-223.6c-31.5-1-95.5-20-116.6-34.4-12-8.2-20-20.3-28.6-26.7 4.4-16.6 19.2-23 38.2-24.8-2.4 10.6 8 8.7 13.3 11.4V688c4 2.6 9.6-9.4 19-7.6 1 7.4-3.4 9.3-2 17.2l23-11.4c4.8 5-2 9.3 0 17.2 11.4 0 9.8-13 23-11.4 6.4 6.6.5 13.4 0 23 8.7-3.5 11-13.2 19-17.3 5.4.3 8.3 3.2 7.6 9.4 10.7-6.6 24.7-9.8 36.3-15.2 7-1.3 4.7 6.7 7.6 9.6 5.6-2.7 7.3-9.4 15.3-9.6-2.5 30.7-23.2 56.4-55.4 55.2zm-53.5-124c3.2-19.3 15.5-29.2 30.6-36.4-1.5 4-5 6.5-3.8 13.4 7.6-2 5.6-13.5 17.2-11.4l3.8 7.6 7.7-9.6c7.8 1.8 11.2 8 9.6 19 5.5-20 33.4-17.5 42-34.3 6.6-.7 3.4 8.3 6 11.5 4.7-2.2 6.3-7.6 13.3-7.6.8 6.2-2.5 16.5 3.8 17.2 7.6-4.6 2.8-21.4 11.5-24.8 6.4-1.3 7 3.2 7.6 7.6 6.2-4 3-17.6 15.4-15.3-1 20.7-10 33.5-13.4 51.6-46.5 15.6-99.5 29.8-151 11.3zm197 13.2c-4.3 22-20.8 31.5-40.2 38.2-4.2-22.4 22-37.6 40-38.2zm11.3-380c-7-11.7 5-18.8 5.8-28.8-3-18-27-15-44-19 12.4-18.4 56-13.6 63.2 5.6 3 25.3-9.4 35.3-25 42zm118.4-44c-9.4 49.7-34 84.2-89.7 87.8-1-4.7-7.4-4-5.8-11.4 4.8-6.7 13.8 0 24.8-2 .5-6-3.3-8-2-15.2 7.8 2.5 18-3.6 28.7-3.8-4.4-4.3-18.8-8.7-9.6-15.3.3-5.5 10.3-1 17.3-3.8-.4-8-13-3.7-17.2-7.7-2-15 11.4-11 21-9.6l-9.5-9.5c.8-14.5 24-6.6 30.6-15.3-11.2-4-30-.7-42-4 5.8-16.4 21-23.4 38.3-28.5-15.7-7.4-24.7 8.4-42 5.8-.7-10 5.2-14 9.5-19-5.5-2.3-11.5 11.3-24.8 7.5.3-13.7 11-17 15.3-26.7-14 5-20.4 18-38.3 19.2-3.8-9 4-21 7.7-28.7-7-.6-12 17.3-19.2 23l-7.6-2c-4.2-12.8.6-32 5.6-42 66.3-1.3 107.2 22.5 112.7 86l-9.6 3.8c-.7 6.5 7 4.5 6 11.2z" fill="none"/>
</svg>
