<svg xmlns="http://www.w3.org/2000/svg" viewBox="0 0 1000 1000">
  <path clip-rule="evenodd" stroke="red" stroke-miterlimit="10" d="M243.5 10H259v2c38.7-7.5 60.2 38 81.8 38 25.3-.6 38.2-34.5 82-22 14 3 20.2 26.4 39.3 27.6C474.5 57 482.5 47 494 44c68.5-19.8 132.5 4.8 165.2 45.5-73.3 15.4-89.3 96-151 129.4-14 8-41.2 19.5-59.7 24-29.6 6.7-61 2.4-82 17.7-52.3 38.8-19 170-41.8 249 16.6 11 35 19.5 59.8 22 46.2-119.5 109-258 237.2-302.4 54.8-19 128.7-16 187.2 0 120 56 180.4 172.5 189 340v26.5h-1.8c-1.2 128-64 215-143.5 274.7C789.2 918 712.2 967.2 602 956c.6-16 26.5-25.2 33.2-46 12.3-35.2-5-69-31.4-81.4-103.5-13.5-147.2 83.2-106 161.4-45-30.8-140.4-32.6-197-9.8 10.5-18.5 58.5-75.2 20.4-101.7-20.4-14.2-84.4 0-115.8-8C105.4 843.5 5.7 762 2 631.5v-14.2C20 579.8 5.7 512 24.2 465.8c8.6-21.5 26-42 37.6-59.7 27.7-41.7 46.2-70.7 75.8-115 13.5-19.8 34.5-44 27.7-68-7.4-28.2-56-27-81.3-38 18.5-24.8 46.8-40 75.8-55.6-16-75.6 27-109 83.7-119.4M233 34c-14.2 2-37 13-45.6 24-24 29.7-8.6 84 26 87.6 16 1.8 28.2-10.5 43.6-12.3 21.6-2.5 37.6 1.2 46.2 12.3 18 24 7.4 55.4-8 67.8-29 21.5-53-8.6-88 3.7-4.4 7.5-10 21-5.6 30.2 11.7 10.5 30.2 14.8 45.6 21.6 6 13.6 17.2 37 37.6 38.2 34 2 46.8-41.2 62.2-58 17.8-19.6 45-27.6 73.3-30 12.3-.7 26.5 3 42 0 18.4-3 59.7-28.3 69.5-39.4 28.3-31.4 40.7-75.8 72-93.6-4.8-9.2-14.7-19-22-22.2-48-20.3-106.6 13-137.4 27.7C427.2 36.7 360.6 49 333 87.8 308.7 61 281.6 26 233 34m70.2 157c8.6-38-40.6-75-62.2-32 19.7 2.5 41.3 2.5 38.2 28.4-6.8.6-6 8.6-12.3 9.8-2.6-2-16.7-3.7-23.5 0L241 207c16.6 20.5 58 2.6 62.2-16m-177.4-19.6c7.4 5.5 28.3-2 35.7 3.7-3.7 3.8-11.7 3.2-10 12.5 14.3 19.6 39 13 42-14.2-10.4-16-58.5-29.6-67.7-2m51.8 89.4c-17.8 33.3-53 69.6-85.6 115.8-28.4 39.5-61 88-66 125.7-10.5 79.5 74 21 82-10.5 6-24.6-6.3-55.4 16-69.6 8.5 11.8 11 29.6 19.6 42 13 6.7 32.7 1.8 42-5.5 39.3-35.2 0-127 16-181.7-6.8-7-11.7-15.5-24-16m613.4 80c-10.5-41.8-66-62.2-111.5-58-96.7 9.3-174.3 89.4-211.3 165.2-11.7 24-32.6 89.3-14.2 98 24 11 28.3-50 34-68 17.7-54 85-134.8 135.4-153.2 53-19 104-13 137.3 24 .6 14.8 6 25.3 18 29.5 11.7-13 17.3-17.8 12.3-37.5M231.2 297l-3.7 5.6C220.7 355 235 425.2 239.2 478c1.2 16.7 13 25.4 16 37.7 18-3 19.7-22.8 27.7-35.8 1 13-2.6 17 0 24 24-10 31.3-51 33.8-85.6 1.8-31.4 1.2-66.6-6.2-91.8-33.3 21.6-9.2 101-26 139.2 3.8-40.6 2-85.6 2.6-129.3-14.8-16.7-36.4-27.7-56-39.4m426.2 29.6c-40 6-88.7 42-113.4 74-26 33.2-57.3 88.6-50 137.2 10.6-1.8 16.7-8.6 26-12.3 37-74.5 75.8-147.2 175-159 6.8-1.7 6-9.7 10.5-14 6.2 14 27.7 30.7 41.3 14 2.4-47.3-55-44.8-89.4-40M538 525.6c35.6-1 55.3-35.6 83.7-53.5 29-17.8 62.8-21 95.4-37.6 2-13.6 1.3-28.3 10-34-11 50 66.5 50 43.7 2C672.2 340.8 547 424.6 538 525.6M860.5 488c-7.4-11-24-14.2-27.7-27.7-8.7-30 8-67-22.3-70.2-6.8 0-11 3.2-16 4.4-.6 17.2 3.7 38.8 0 61.6 16 16 29 34.5 30.2 66-26 17.7-12.4 48-12.4 85.5l-17.8 17.8c15.4 48 6.8 80-34 87.5-4.8 29.5-8 58.5-35.6 64-13 2.5-27.7-4.3-42-1.8-9.2 1.2-17.8 7.4-25.8 9.8-6.8 1.2-16-3-18 5.5 2 28.3 34.6 11 50 12.3 10.5.7 16.6 8.6 26 10 47.3 8 54-30.3 69.5-58 40 2 38.7-41.2 53.5-67.7 5.5-9.4 16-13 17.8-19.8 8-27.7-4.3-51-10-74 20.5-23.3 37-70.7 14.3-105.2m-215-16c-39.3 19.7-85 47.5-59.7 82 43.6-18 88-35.8 149-35.8 9.3-5.5 18.5-21.6 27.7-20.4-1.8 7.4-6.8 11.8-5.5 22.2 6 19 35.7 18.5 49.3 5.5 16-89.8-98-85.6-160.8-53.5m-466.3 85.6c17.2-21 38.8-59 32-91.8-31.4 10-69.6 59.8-32 91.8m-34-75.7c-21.5-7-40.6 51-40 72 .7 11.6 5.6 30 18.5 33.8 17.8-23.4 41.2-75.8 21.5-106M801 572c-19.8-25.4-58-50.6-108-42-35.6 6.2-105.2 26.6-97.2 61.7 18.5 7.4 31.4-7.4 53.6-8 30.8-1.2 67.7 14.8 91.8 10 8.6-1.4 11-11.8 19.7-10-5.6 21.6 4.8 31.4 25.8 32 12.3-11 17.2-19.7 14-43.8m-535.8-16l4.3 11.8c16-1.3 36.4-5 31.4-21.6-16-1.3-26.4 3.6-35.7 9.8m-193.4 66c18.5-7.5 27-40.7 18.5-62.3-29-1.3-30.7 45.5-18.4 62.2m104-32c-4.8-6.2-8-14.2-10.4-22.2-26.5 6-23.4 41.8-43.7 54.2-6.8-3-5-14.8-13.6-16-23.5 10.5-28.4 39.4-46.3 55.5-12.3-3-8.6-23.5-26-21.6-5.4 27.7 13 48 28.4 61.6 15.5-16.6 26.6-38.2 41.4-56-2 12.2 6 14 14 16 18-12.5 18.6-42 40.2-52 3 5.6 5 12 11.7 14.3 20.3-12.3 38.8-26.5 40-58-19 1.4-22.7 17.3-35.6 24.2M412.2 578c5 5.4 11.7-3.2 20.3 0l-2.5-10.5c-8 1.2-13.4 5-17.8 10.4M34 573.5c-5 21 5.5 43.7 22.2 50 8-10.5-1.2-28.4 3.7-43.8-7-3.7-15-6.8-26-6.2m751 66c-28.4-42.6-124.5-49.4-175.6-34-6 8.6-14.8 15.4-11.7 34 59.7-6.8 94.8 11 127.5 31.3 9.3-2 15.4-7 24-10-5.5 8.7 0 20.4 0 30.2 10.5.6 15.4 6.8 26 8 16.5-14 23.3-40 9.7-59.7m-492.3 43.7c13-3 21-17.8 26-22 11-50.6-31.5-71-73.4-53.7-54.8 22.2-87 137.3-20.4 161.3 6-30-24-66-13.6-101.6 6-22.8 36.3-47.5 67.7-45.6 7 8 15.5 14.8 16 29.5-4.8 16.7-27 12.5-38 18-5 16.7 20.3 18 35.7 14.2M538 605.6c-13 38.8-36.5 77-68 111.5-38.7 43.2-105.2 84-187 65.4-12.4-2.5-29-21.5-37.7-3.7 13 18.4 42.5 19.7 65.3 27.7 97.3-6.2 165-59 209.4-125 13.6-21 32.6-48.7 24-75.8h-6m-45.7 16c-19.7-.5-20.3 10.5-28.3 21.6-10.5 15.4-42 36.4-34 58 27.8-19.8 55-40 68-74l-5.7-5.5m-67.8 9.8c-15.4 6.8-16.6 26.5-24 39.4-6.8 11-25.2 19.6-16 33.8 21.6-19 42.5-40 51.8-71.4l-11.8-2m-85.6 58c18.4-8 40.6-29.6 31.3-51.8-24 3-25.8 29.7-31.4 51.8M697.3 753c6.8 31.3 62.2 1 45.6-44-11-27-60.4-58.4-101.7-61.5-19.7-2-51-1.3-53.6 23.4 37 14.7 72 32 99.8 56 9.2 1.2 12.3-3 21.6-2-6 9.4-15.3 13-11.6 28m-22.2 9.7v-26c-11-25.8-70.2-63.3-97.3-45.5 11.6 21.6 23.3 43.8 59.6 42-37.5 30.8 12.4 61 37.6 29.5m-117.6 8c-4.3-7.4-10-13.6-23.4-11.7l-4.3 2c-4.4 6-4.4 16.5-3.8 27.6 22.2 17.2 56.6 3.7 59.7-21.5 2.4-21.5-12.4-45.5-30.3-54H552c0 21.4 24 42.3 5.6 57.7" fill="none"/>
</svg>
