<svg xmlns="http://www.w3.org/2000/svg" viewBox="0 0 1000 1000">
  <path clip-rule="evenodd" stroke="red" stroke-miterlimit="10" d="M270.7 180.6h13.8v2c28.7-1 24.5 29 47 31.3 13.8 1.4 26.5-11.5 43-15.7 20.3-5.3 38-1.4 60.7-6 17.5 18 51 22 57 47 5.3 22.5-6.6 66.7-21.7 80.4-16 14.8-40 10.2-57 21.6 22.3 38 76.2 27.5 135.5 33.3 78.8 7.6 178.3 10 262.6 13.8 17.8.8 36.7 8 53-4 3-23.8-25.5-20-41.3-21.5-52.3-5-114.3-9-168.5-15.7-3.2-32.3-1.5-72.4 11.7-98 30.2-.3 55 5 80.3 9.7 4.6 16-8.8 23-5.8 31.4 68.3 12 171.4-2.2 227.3 15.6-6.3 51 3 109.6-9.7 160.7-5 20.2-19.4 34.8-21.7 53-9.8 81.2 20.3 140.8 53 194v2h-2c-28.7 31-43.3 75.6-76.6 102-2.7 1-10-2.3-9.7 1.8H892c-29.7-13-81-4-117.6-9.7 8.7-16 8.2-41.4 17.5-57 33.5-3 63.3-16.2 64.6-45 2-38-40.6-66-74.4-68.5-20.5 14.8-9 61.7-19.7 86.3-11.2 12-25 15-39 29.4-12.2 12-20.6 37.2-35.4 43-11.8 5-26 .6-39 0-28-1-59 1-86.2-4 11.2-33 17.7-71 39-94 42 2 51-29 47-72.4-80-1.5-216.5-19.2-270.3 21.6-27.3 20.5-41.8 48.6-55 88-11.8 10-26 20.5-41.2 33.4-11 9.5-29 30.2-41 33.3-10 2.5-23.5-1.6-33.4-2-35.6-1.5-77 3.4-112-4-4.8-35 0-75 19.6-98 10.5-12 28.7-8 35.3-23.5-33-23-27.4-85-41-127.5 7.8 3.2 27.3 3.2 35.3 0-8-19-23.4-30-31.4-49 8-9 9.8-24 21.5-29.5 28.7 19.2 89.3 16.3 86.3-29.4-18.3-11.3-45.5-30-68.6-27.2-23.4 2.7-28.5 29-47 37.2-14.6-9.5-29.2-19-37.2-35.3-14.4-2.5-23-11-31.4-19.5 5-9.2 7.5-21.2 11.7-31.4-13-7.8-33-8.7-39.2-23.4v-2c16 1 34 23 45.3 10-1.3-18.8-37.7-13.6-37.3-39.5 17.2 8 27.3 23.5 52.8 23.5 5.6-25.5-26.5-23-25.5-37.4 23 1 28.5 18.8 47 23.7 32.3-37.7 72.2-67.6 125.5-84.2 12.5-23.5 24.2-47.6 53-55m-15.7 49c7.7.7 31 1.4 35.3-7.8-3.5-13.6-36.6-7.3-35.2 7.8M437.4 251c-7-2-16.5-16.6-29.4-19.4-16.6-4-43.7-4-47 11.7 32.5-.7 52.2 11.7 50.8 45-8.2 8.8-18.5 15.6-23.4 27.5 39 1.4 62.2-25.6 49-64.7m-164.7 21.7c23 1 33.5-11 33.3-33.3-14 2-42.4 8-33.3 33.3m-56.8 7.8c16.5-6 30.3-15.3 33.2-35.3-21.6-6-48 16-33.3 35.3M343 259c-3.7 9.4-1.4 24.7-2 37 16.7 9.4 38.8 9.8 55 0 6.6-15.4 4.6-26.6-4-39-14.8-2.7-36.7-3.5-49 2M265 282.4c-7.6-3.2-3.5-17.7-14-17.7-9.4 12.2-20 30.7-45 21.6-8.8-45-50 2-33.4 27.3 12 18.7 37 5 62.7 7.8 15.8 2 30.6 14.4 39.2 15.8 16 2.2 30.7-3 47-13.8 7.6-16.3 8-46.4 0-62.7-20.4 7-28 39.7-56.6 21.7M676.4 310c12-14 44.8-16 37.2-43.2-25.2-8.2-56.6 19.6-37.2 43M86.5 355c40.3-9.5 64.3 22.4 101.8 15.6 3-13.6 3-20.7 2-35.3-21.6-10.4-35.8-24-39.2-51-30.8 14.2-54 36-64.6 70.7m633.2-27.5c-14.3 4-33.6-4.8-45.2 7.8 41.8 19.7 112.8 8 127.5-29.4-35.5-19.4-56.4 14.4-82.4 21.5M800 351c31.2 8 48.3-14 60.7-31.3 5.8-4.6 16.5-4.2 17.5-13.8-47.5-6.5-65.7 16.4-78.3 45M935 316c-35.4-13.4-53.2 18-64.6 41 21-12.6 50-11.3 66.6 4 8.7-11.7 7-35.3-2-45M280.7 349c-.5 10.8 1.4 23.7-2 31.5 19.7 1.7 39.7 12 57 9.7 6.7-18.7 25-25.8 43-33.3v-19.6c-14.3-3.4-27.7-7.6-43-10-10.2 15.6-32 19.3-55 21.7m-80.4 27.6c12.2 21 48.7 14 60.6-2-.7-7 .8-16.5-5.8-17.7-13 27-50.6 10.8-33.3-21.7-23.3-2.3-22.5 19.4-21.5 41.3m-102 0v11.7c7.2.7 11-2.2 15.7-4 1.3-5.8-2-7-2-11.6-6-.3-9.4 2.4-13.7 4m49 3.8c8 11.2 41.5 22.6 54.8 9.7-6.5-13.8-38-12.6-54.8-9.7m786 35.2c-3.6-13-20-12-29.5-19.5-5.3-4.4-6.8-19.2-15.6-17.7-27.7 38.7 13.5 60 21.7 80.3 6 15.3-.5 30.7 11.7 43 11.5-21 10.5-54.7 12-86M66.8 400c11 2 14.8-6.6 11.6-13.7-12-2.7-14.6 7-11.7 13.7m360.5 13.8c10.5-5.8 24.6-8 31.4-17.7-7.7-12-29.8-9.4-49.2-9.8-5.8 12.7-20.5 20.7-25.5 39.2-7 27.2 8.8 65.4-13.6 80.3-.2-78.3-67-90-139.3-96-1.2 16.8 8.8 22.6 15.8 31.2 12-.4 27.3 5.7 43 9.8 14.6 4 36.2 4 41.3 17.7-42 1.5-56.6-24.5-98-23.6-7.6 36.8-38.7 50.2-86.3 47-14.4 18.4 3 40.2 17.7 47 18.4-5 31.5-15.5 51-19.5 22.3 20 68.3 4.2 86.2-2-13 14.6-35 20-58.8 23.6v23.5c50-11 73.2 22 123.5 21.6-12.3 18.4-34 35.6-59 31.5-16.2-2.6-43-32.3-68.5-19.5-5.6 16-13.8 29.4-17.7 47 32.3 2.3 57 12.3 78.3 25.4 44 1.5 58-41 94.2-54.7 26.2-10 69.5-8.2 98-10 104.6-6.5 228.6.8 315.6 21.7V596c9 .2 7 11.2 17.7 9.8 30.2-4 74-5 98 5.8.8-19.5-2.5-50.8-8-70.5-16.5-10.6-38-17-49-33.2-2.8-36.7 7.6-68 0-98-48 1.4-22.7 76.6-29.3 119.6-16.8 9.3-34.6 17.5-53 25.5 20.5-26 7.5-73.6 12-115.8 5.3-12.2 21.5-13.6 25.4-27.5-21.4-4.2-47.6 3.4-57 17.7-5.5 27.2-3.5 61.8-3.8 94-17.3 14.2-39.4 23.5-62.7 31.5 27-20.8 14.2-81.3 19.6-123.6 5.4-9 18.7-10 23.6-19.7-19.4-.8-46 7.5-62.7 15.8-6.8 29.4 3 68.3-2 96-14.4 17-37 25.6-57 37.2 27.4-21 14.5-82.2 19.6-125.3 9.4-9.2 27.6-9.2 31.5-23.6-21.2-5-47.2.7-62.7 7.8-7.3 26.8-8.5 59.4-7.8 94-16.7 14.2-33.8 28-60.8 31.5 27-20 24.3-69.7 25.5-115.6 1.2-10.4 20-12.2 15.6-21.6-61.7-12.7-51.3 63.7-58.8 111.8-11.3 14-31.5 19.4-48.8 27.4 21.6-22.6 11.7-70 15.6-117.5 9.2-9.7 26.7-11 33.3-23.4-18-1-48.2 2.6-60.6 13.7-4.4 29.2-6 60.6-8 92.2-16 9-38.4 22.8-52.8 27.2 32-18.7 22.3-79.5 27.3-125.4M255 406c24 6.8 50.5 10.7 74.5 17.5 2-7 7.3-11 8-19.5-17-10.4-73.2-27-82.4 2m-90-4v6c17.4 5.7 36.4 19 54.8 17.6-.4-24.7-31.3-28.8-55-23.5m-76.3 6c0 5.2-.7 11 2 13.7 8.3-1.4 15-4.6 13.6-15.6-7.2-1.5-9.2 2.4-15.5 2m131.3 139c-10.4 9.3-30.2 9.2-35.2 23.6 11.5 13.8 13 38 29.4 47 6.3-18 23.4-52.6 5.8-70.6m-82.4 21.5c-7.8 14.8 4 40 12 60.8 6.4 17 11 43.6 29.3 35.3 1-15.3-13.4-25-13.8-45-.3-10.4 5.2-20.5 3.8-33.5-7-9-15-17.5-31.4-17.5M696 629.3c-.7 11.4 10.7 10.4 17.7 13.8 11.2 12.3 18.2 29 23.6 47 19-4.3 12-35 13.6-56.8-15.8-3.5-37-8.4-55-4M847 653c2.5 49.2 74 27.4 107.7 41-2.4-20-9.7-34.6-19.5-47-31.8-3.4-57.6 2.4-88.2 6m-182.3 41c1.5 6.5 11.2 14 13.8 19.5 7.6 17.2 6.3 30.2 21.4 29.6 13.3-.7 25-22.2 35.2-31.3-25.5-13-52-25-55-60.8h-5.8c-4 11.3-13.6 27-9.7 43m-441-19.5c-36.3-8.5-59 31.2-90.2 33.3-9 17.7-11 42.5-9.7 70.5 37 0 79.3 15.8 109.7 4-8-15-25.3-14.7-35.3-27.4-11-14-13.4-34-33.3-39.3 18.2-5.4 37.3-7.8 54.8 0 10.7 14 21 33.6 39.2 35.3 23.4 2.2 43.6-29.7 47-49-43 27.4-62-23-82.3-27.5M653 711.7c-29.5-3.4-51.2 18.2-49 52.8 20.7 4.2 53.8 16.6 74.6 8 10-11.2-11.2-19-19.7-23.6-1.7-13-2.2-26.8-6-37.3m217.4-2c-5 3.4-4 13-4 21.6 14 15 43 14.8 45 41.3 19-9.3 28.8-27.7 35.4-49-27.3-2.7-56.3-3.7-76.4-14m-64.7 53c-4 8-8.2 15.4-7.8 27.6 33 1.7 65.6 3.4 100 3.7-4-28-42-22.2-47-49-12.5 8.7-32 10-45.3 17.7" fill="none"/>
</svg>
